<svg width="1024" height="1024" viewBox="0 0 1024 1024" fill="none" xmlns="http://www.w3.org/2000/svg">
<path d="M706 270C709.283 271.378 710.643 272.405 712.477 275.461C713.722 278.621 714.904 281.784 716 285C716.324 285.936 716.647 286.872 716.98 287.836C719.107 295.283 719.277 302.543 719.312 310.25C719.318 311.268 719.324 312.286 719.329 313.335C719.255 321.149 718.428 328.523 715.125 335.687C714.783 336.434 714.442 337.18 714.09 337.949C713 340 713 340 710.688 343C708.277 347.286 708.804 350.335 710 355C710.928 357.598 711.942 360.12 713.062 362.641C715.5 368.774 715.253 375.124 715.312 381.625C715.342 382.655 715.371 383.685 715.4 384.746C715.491 395.807 712.39 404.407 705.219 412.836C701.865 416.107 698.264 418.129 694 420C693.072 420.433 692.144 420.866 691.188 421.312C689 422 689 422 685 422C684.974 422.862 684.948 423.725 684.922 424.613C683.967 445.164 678.825 463.502 668.223 481.195C666.788 484.486 666.72 485.676 668 489C671.021 493.881 674.991 495.948 679.938 498.5C686.251 501.775 690.96 504.94 695 511C695.66 515.958 695.756 520.488 693.5 525C688.675 528.86 683.913 530.028 677.812 530.437C674.263 530.686 673.3 530.759 670.438 533.062C666.834 535.927 663.44 535.348 659 535C659 535.66 659 536.32 659 537C659.641 537.091 660.281 537.183 660.941 537.277C679.485 541.659 695.998 552.518 710 565C711.31 566.066 712.622 567.129 713.938 568.187C722.85 575.961 729.848 588.255 731 600C728.494 597.698 726.521 595.087 724.488 592.369C703.872 565.046 673.413 549.319 641 540C640.069 539.73 639.139 539.459 638.18 539.181C624.894 535.376 611.711 532.668 598 531C596.958 530.87 595.917 530.74 594.844 530.606C591.459 530.186 588.074 529.778 584.688 529.375C583.651 529.252 582.614 529.128 581.546 529.001C567.615 527.414 553.787 526.831 539.781 526.797C538.984 526.794 538.187 526.791 537.366 526.788C533.135 526.773 528.904 526.764 524.673 526.76C521.253 526.755 517.833 526.742 514.413 526.719C492.39 526.574 470.878 527.376 449 530C446.839 530.247 444.677 530.493 442.516 530.738C403.524 535.174 362.379 545.955 332 572C331.463 572.455 330.927 572.909 330.374 573.377C322.667 579.959 316.222 587.059 310.145 595.164C308 598 308 598 306 600C306.479 587.534 313.942 577.962 322 569C322.592 568.314 323.183 567.628 323.793 566.922C340.002 549.318 364.709 539.861 386.938 532.687C388.109 532.305 388.109 532.305 389.304 531.915C394.213 530.377 398.878 529.495 404 529C401.69 525.37 399.38 521.74 397 518C395.701 518.433 394.401 518.866 393.062 519.312C391.375 519.875 389.688 520.437 388 521C387.037 521.376 387.037 521.376 386.055 521.759C380.026 524.007 374.595 524.508 368.188 524.437C366.735 524.425 366.735 524.425 365.253 524.412C353.311 524.131 344.858 521.076 336 513C335.008 512.128 335.008 512.128 333.996 511.238C328.901 506.505 326.357 502.452 325.625 495.375C326.031 491.724 326.771 489.889 329 487C332.551 484.633 334.9 484.251 339 485C341.831 486.105 344.533 487.36 347.254 488.711C356.081 492.855 367.896 494.061 377.375 491C379.163 490.144 379.163 490.144 381 489C381.892 488.52 382.784 488.041 383.703 487.547C391.172 482.954 393.799 477.891 396.562 469.941C404.543 447.128 423.979 432.342 445 422C464.09 413.03 486.074 409.886 506.91 408.309C520.668 407.331 520.668 407.331 534 404C534.672 403.772 535.344 403.544 536.036 403.309C552.563 397.606 568.947 389.394 577 373C577.455 372.17 577.91 371.34 578.379 370.484C578.852 369.603 579.325 368.721 579.812 367.812C580.252 366.994 580.692 366.175 581.145 365.332C582.149 362.595 582.124 361.661 581 359C579.97 357.422 578.88 355.883 577.75 354.375C565.883 337.815 562.686 319.069 564 299C564.779 294.674 565.902 291.393 568.625 287.937C576.492 284.832 584.615 287.834 592 291C602.891 296.117 611.549 302.459 620 311C620.935 311.892 621.869 312.784 622.832 313.703C625 316 625 316 625 318C626.744 317.459 626.744 317.459 628.523 316.906C639.946 313.536 650.121 312.361 662 313C662.111 312.283 662.222 311.567 662.336 310.828C665.876 295.751 679.689 282.245 692.125 273.937C692.699 273.543 693.272 273.149 693.864 272.742C698.045 270.072 701.092 269.371 706 270Z" fill="#FBB956"/>
<path d="M706 270C709.283 271.378 710.643 272.405 712.477 275.461C713.722 278.621 714.904 281.784 716 285C716.324 285.936 716.647 286.872 716.98 287.836C719.107 295.283 719.277 302.543 719.312 310.25C719.318 311.268 719.324 312.286 719.329 313.335C719.255 321.149 718.428 328.523 715.125 335.687C714.783 336.434 714.442 337.18 714.09 337.949C713 340 713 340 710.688 343C708.277 347.286 708.804 350.335 710 355C710.928 357.598 711.942 360.12 713.062 362.641C715.5 368.774 715.253 375.124 715.312 381.625C715.342 382.655 715.371 383.685 715.4 384.746C715.491 395.807 712.39 404.407 705.219 412.836C701.865 416.107 698.264 418.129 694 420C693.072 420.433 692.144 420.866 691.188 421.312C689 422 689 422 685 422C684.974 422.862 684.948 423.725 684.922 424.613C683.967 445.164 678.825 463.502 668.223 481.195C666.788 484.486 666.72 485.676 668 489C671.021 493.881 674.991 495.948 679.938 498.5C686.251 501.775 690.96 504.94 695 511C695.66 515.958 695.756 520.488 693.5 525C688.675 528.86 683.913 530.028 677.812 530.437C674.263 530.686 673.3 530.759 670.438 533.062C666.834 535.927 663.44 535.348 659 535C659 535.66 659 536.32 659 537C659.641 537.091 660.281 537.183 660.941 537.277C679.485 541.659 695.998 552.518 710 565C711.31 566.066 712.622 567.129 713.938 568.187C722.85 575.961 729.848 588.255 731 600C728.494 597.698 726.521 595.087 724.488 592.369C703.872 565.046 673.413 549.319 641 540C640.069 539.73 639.139 539.459 638.18 539.181C624.894 535.376 611.711 532.668 598 531C596.958 530.87 595.917 530.74 594.844 530.606C591.459 530.186 588.074 529.778 584.688 529.375C583.651 529.252 582.614 529.128 581.546 529.001C567.615 527.414 553.787 526.831 539.781 526.797C538.984 526.794 538.187 526.791 537.366 526.788C533.135 526.773 528.904 526.764 524.673 526.76C521.253 526.755 517.833 526.742 514.413 526.719C492.39 526.574 470.878 527.376 449 530C446.839 530.247 444.677 530.493 442.516 530.738C403.524 535.174 362.379 545.955 332 572C331.463 572.455 330.927 572.909 330.374 573.377C322.667 579.959 316.222 587.059 310.145 595.164C308 598 308 598 306 600C306.479 587.534 313.942 577.962 322 569C322.592 568.314 323.183 567.628 323.793 566.922C340.002 549.318 364.709 539.861 386.938 532.687C388.109 532.305 388.109 532.305 389.304 531.915C394.213 530.377 398.878 529.495 404 529C401.69 525.37 399.38 521.74 397 518C395.701 518.433 394.401 518.866 393.062 519.312C391.375 519.875 389.688 520.437 388 521C387.037 521.376 387.037 521.376 386.055 521.759C380.026 524.007 374.595 524.508 368.188 524.437C366.735 524.425 366.735 524.425 365.253 524.412C353.311 524.131 344.858 521.076 336 513C335.008 512.128 335.008 512.128 333.996 511.238C328.901 506.505 326.357 502.452 325.625 495.375C326.031 491.724 326.771 489.889 329 487C332.551 484.633 334.9 484.251 339 485C341.831 486.105 344.533 487.36 347.254 488.711C356.081 492.855 367.896 494.061 377.375 491C379.163 490.144 379.163 490.144 381 489C381.892 488.52 382.784 488.041 383.703 487.547C391.172 482.954 393.799 477.891 396.562 469.941C404.543 447.128 423.979 432.342 445 422C464.09 413.03 486.074 409.886 506.91 408.309C520.668 407.331 520.668 407.331 534 404C534.672 403.772 535.344 403.544 536.036 403.309C552.563 397.606 568.947 389.394 577 373C577.455 372.17 577.91 371.34 578.379 370.484C578.852 369.603 579.325 368.721 579.812 367.812C580.252 366.994 580.692 366.175 581.145 365.332C582.149 362.595 582.124 361.661 581 359C579.97 357.422 578.88 355.883 577.75 354.375C565.883 337.815 562.686 319.069 564 299C564.779 294.674 565.902 291.393 568.625 287.937C576.492 284.832 584.615 287.834 592 291C602.891 296.117 611.549 302.459 620 311C620.935 311.892 621.869 312.784 622.832 313.703C625 316 625 316 625 318C626.744 317.459 626.744 317.459 628.523 316.906C639.946 313.536 650.121 312.361 662 313C662.111 312.283 662.222 311.567 662.336 310.828C665.876 295.751 679.689 282.245 692.125 273.937C692.699 273.543 693.272 273.149 693.864 272.742C698.045 270.072 701.092 269.371 706 270ZM680.512 294.078C673.909 301.759 670.107 310.454 667 320C666.412 320.009 665.824 320.019 665.219 320.028C652.892 320.273 641.735 321.074 630 325C628.314 325.559 628.314 325.559 626.594 326.129C625.738 326.416 624.882 326.704 624 327C623.466 326.31 622.933 325.621 622.383 324.91C611.917 311.711 600.59 302.982 585.062 296.5C584.436 296.232 583.809 295.965 583.163 295.689C579.388 294.192 576.896 293.758 573 295C571.508 299.476 571.816 303.873 571.812 308.562C571.8 309.514 571.788 310.466 571.775 311.447C571.742 327.768 576.993 344.911 588.5 356.875C590.667 358.931 592.838 360.616 595.375 362.187C598 364 598 364 598.875 366.25C598.916 366.827 598.957 367.405 599 368C597.188 368.687 597.188 368.687 595 369C593.375 367.562 593.375 367.562 592 366C591.34 366 590.68 366 590 366C589.562 366.932 589.123 367.864 588.672 368.824C579.663 387.223 566.192 399.224 547.48 407.457C544.267 408.881 541.13 410.404 538 412C538.349 412.675 538.699 413.351 539.059 414.047C539.514 414.939 539.969 415.831 540.438 416.75C540.89 417.632 541.342 418.513 541.809 419.422C544.768 425.826 545.348 433.174 542.988 439.871C539.801 446.466 539.801 446.466 536 449C536 449.66 536 450.32 536 451C535.051 451.309 534.103 451.619 533.125 451.937C530.139 452.874 530.139 452.874 528 454C520.983 454.796 515.919 453.8 510 450C509.092 449.443 508.185 448.886 507.25 448.312C502.136 443.057 500.754 437.549 500.688 430.312C500.785 426.116 501.239 422.127 502 418C482.68 416.103 462.268 422.761 445 431C444.325 431.32 443.651 431.641 442.956 431.971C424.81 440.776 410.08 455.357 402.93 474.316C402.469 475.645 402.469 475.645 402 477C401.567 478.237 401.134 479.475 400.688 480.75C398.36 491.493 398.777 505.732 404.359 515.34C405.806 517.343 407.359 519.155 409 521C409.99 522.516 409.99 522.516 411 524.062C417.312 528.139 426.174 525.324 433.258 524.07C441.895 522.612 450.6 521.798 459.312 520.937C460.633 520.805 460.633 520.805 461.979 520.671C475.647 519.309 489.262 518.296 503 518C502.34 516.02 501.68 514.04 501 512C504.653 513.25 505.781 513.671 508 517C508.66 517 509.32 517 510 517C510 515.35 510 513.7 510 512C511.98 512.99 511.98 512.99 514 514C513.741 510.283 513.264 508.337 510.938 505.375C504.233 499.954 498.625 498.377 490.062 498.625C489.22 498.626 488.378 498.628 487.51 498.629C481.758 498.709 476.575 499.594 471 501C472.66 496.285 475.18 493.088 478.344 489.281C481.239 485.294 482.28 481.841 482.25 476.937C482.255 476.101 482.26 475.264 482.266 474.402C481.981 471.832 481.188 470.268 480 468C480 467.01 480 466.02 480 465C482.702 465.373 483.799 465.784 485.688 467.812C488.816 473.027 488.749 478.941 487.328 484.742C486.596 487.179 485.828 489.594 485 492C486.039 492.026 487.078 492.052 488.148 492.078C498.276 492.444 508.596 493.173 516 501C519.928 506.651 521.341 511.21 522 518C522.783 518.025 523.566 518.05 524.373 518.076C541.586 518.63 558.794 519.244 576 520C574.76 516.167 572.94 513.683 570.311 510.665C567.968 507.689 566.398 504.332 564.75 500.937C564.399 500.243 564.049 499.549 563.688 498.834C560.613 492.609 559.872 487.68 559.938 480.687C559.947 479.433 559.956 478.179 559.965 476.887C559.982 475.458 559.982 475.458 560 474C561.65 473.67 563.3 473.34 565 473C564.977 473.557 564.954 474.114 564.93 474.687C564.593 488.929 570.339 501.676 580 512C585.09 516.964 590.116 521.025 597.332 522.027C598.366 522.178 599.4 522.328 600.466 522.483C601.57 522.633 602.675 522.783 603.812 522.937C606.157 523.273 608.5 523.61 610.844 523.949C612.034 524.12 613.223 524.29 614.449 524.466C618.897 525.135 623.319 525.917 627.747 526.706C636.929 528.335 645.646 529.658 655 529C654.386 525.662 653.654 522.978 652 520C655.773 521.02 656.802 521.659 658.812 525.125C659.204 526.074 659.596 527.022 660 528C661.32 528 662.64 528 664 528C663.34 525.03 662.68 522.06 662 519C666 521 666 521 667.25 523.625C667.498 524.409 667.745 525.192 668 526C668.33 526 668.66 526 669 526C669.612 521.102 668.557 517.929 665.855 513.941C662.068 509.979 656.943 508.176 652 506C639.468 500.181 629.967 494.432 623 482C622.777 479.16 622.777 479.16 623 477C625.699 477.364 626.789 477.766 628.641 479.82C629.172 480.581 629.703 481.341 630.25 482.125C633.666 486.689 637.132 490.927 642 494C645.477 494.426 646.896 493.85 649.645 491.734C666.66 475.909 675.965 451.502 677.184 428.539C677.187 426.017 677.144 423.517 677 421C676.082 420.576 675.164 420.152 674.219 419.715C659.629 412.807 659.629 412.807 655 407C655 406.01 655 405.02 655 404C657.562 405.23 659.808 406.539 662.188 408.125C666.445 410.54 670.209 410.797 675 410C681.057 408.221 681.057 408.221 685.254 403.859C685.5 403.246 685.746 402.632 686 402C685.157 401.602 684.314 401.203 683.445 400.793C682.35 400.263 681.254 399.733 680.125 399.187C679.034 398.665 677.944 398.143 676.82 397.605C674 396 674 396 672 393C671.615 391.344 671.272 389.678 671 388C687.708 383.408 687.708 383.408 696 384C695.655 391.238 693.898 395.916 690 402C694.121 403.998 697.452 404.178 702 404C708.736 392.998 709.659 382.332 706.716 369.712C705.481 364.838 704.115 360.052 702.25 355.375C700.933 351.818 700.662 349.751 701 346C702.391 343.352 702.391 343.352 704.25 340.625C713.44 325.562 713.532 308.606 709.934 291.734C708.734 286.935 707.115 282.467 705 278C695.397 277.088 686.668 287.72 680.512 294.078Z" fill="#41222D"/>
<path d="M705 278C713.022 294.94 714.474 314.291 708.729 332.127C707.565 335.119 705.905 337.735 704.188 340.438C701.483 344.776 700.128 347.387 701.203 352.445C702.669 357.146 704.187 361.813 705.844 366.449C709.601 377.987 709.312 390.047 704 401C703.34 401.99 702.68 402.98 702 404C697.367 404.437 694.218 403.822 690 402C690.433 401.203 690.866 400.407 691.312 399.586C691.869 398.526 692.426 397.467 693 396.375C693.557 395.331 694.114 394.287 694.688 393.211C696.058 389.859 696.258 387.58 696 384C688.51 383.626 682.194 384.991 675 387C673.668 387.338 672.335 387.673 671 388C671.73 392.846 671.73 392.846 674.738 396.508C678.319 398.76 681.992 400.622 686 402C684.609 405.466 683.34 406.738 679.938 408.25C675.236 410.141 671.016 411.065 666 410C663.74 408.896 661.764 407.663 659.727 406.191C657.898 404.811 657.898 404.811 655 404C655.722 407.967 657.423 409.774 660.547 412.34C665.692 415.822 671.386 418.368 677 421C678.785 442.623 670.574 467.129 656.957 483.875C655.92 485.072 654.872 486.26 653.812 487.438C653.326 487.987 652.839 488.537 652.338 489.103C649.977 491.586 648.15 492.951 644.879 494.023C641.472 493.996 640.562 493.504 638.125 491.188C637.453 490.551 636.782 489.914 636.09 489.258C633.073 485.998 630.39 482.519 627.762 478.941C627.18 478.301 626.599 477.66 626 477C625.01 477 624.02 477 623 477C622.67 477.66 622.34 478.32 622 479C621.34 479 620.68 479 620 479C618.527 476.9 617.187 474.822 615.875 472.625C615.502 472.022 615.13 471.418 614.746 470.797C612 466.27 612 466.27 612 464C611.34 464 610.68 464 610 464C609.036 461.189 608.079 458.377 607.125 455.563C606.721 454.388 606.721 454.388 606.309 453.189C603.558 445.037 601.719 437.571 601.875 428.938C601.893 427.627 601.911 426.316 601.93 424.965C601.953 423.986 601.976 423.008 602 422C604.546 423.228 606.995 424.559 609.461 425.945C610.098 426.3 610.735 426.654 611.391 427.02C612.711 427.755 614.026 428.5 615.336 429.254C619.401 431.491 622.234 432.457 627 432C627 431.01 627 430.02 627 429C625.71 428.451 625.71 428.451 624.395 427.891C607.177 420.005 597.047 408.07 589.043 390.996C588.047 388.848 588.047 388.848 586 387C585.918 383.734 585.918 383.734 586.188 379.75C586.264 378.446 586.34 377.141 586.418 375.797C587.006 371.961 588.075 369.342 590 366C590.866 366.464 590.866 366.464 591.75 366.938C593.843 367.926 595.745 368.517 598 369C598.495 367.515 598.495 367.515 599 366C596.142 363.052 593.233 360.361 590.062 357.75C579.491 348.53 573.21 333.796 572 320C571.842 316.249 571.815 312.504 571.812 308.75C571.8 307.77 571.788 306.791 571.775 305.781C571.773 304.838 571.772 303.894 571.77 302.922C571.765 302.072 571.761 301.222 571.757 300.347C572.019 297.815 572.727 296.185 574 294C579.279 294.546 583.763 295.837 588.625 298C589.663 298.46 589.663 298.46 590.723 298.93C604.642 305.339 614.972 314.746 624 327C624.781 326.735 624.781 326.735 625.579 326.465C639.493 321.857 652.355 319.97 667 320C667.352 319.033 667.704 318.066 668.066 317.07C674.084 300.998 683.562 288.622 697.93 278.926C700.416 277.814 702.305 277.826 705 278Z" fill="#FCFBFA"/>
<path d="M399.175 620.75C401.098 620.719 401.098 620.719 403.06 620.688C416.542 620.633 427.191 623.032 437.05 632.5C444.127 639.963 445.476 648.032 446.238 658C446.783 657.469 447.328 656.938 447.89 656.391C456.482 648.342 462.925 645.24 474.863 645.613C482.458 646.484 487.722 649.909 493.238 655C493.795 654.072 494.352 653.144 494.925 652.188C497.23 649.011 498.702 647.591 502.238 646C503.558 646 504.878 646 506.238 646C506.264 645.203 506.289 644.407 506.316 643.586C506.658 637.195 506.905 632.842 511.238 628C515.481 625.171 519.255 625.347 524.238 626C527.87 628.119 529.717 630.124 531.238 634C531.433 637.016 531.433 637.016 531.363 640.25C531.345 641.328 531.327 642.405 531.308 643.516C531.285 644.335 531.262 645.155 531.238 646C532.31 646.124 533.383 646.248 534.488 646.375C539.755 647.253 539.755 647.253 542.238 649C544.802 653.242 544.781 657.172 544.238 662C542.854 665.614 541.979 666.646 538.488 668.313C535.238 669 535.238 669 528.238 669C527.908 675.93 527.578 682.86 527.238 690C529.878 689.67 532.518 689.34 535.238 689C538.405 690.584 540.436 692.024 542.675 694.75C543.587 698.394 543.42 701.485 542.238 705C539.111 710.069 535.251 713.882 529.476 715.598C523.694 716.637 517.743 717.157 512.363 714.438C507.386 710.555 504.148 706.045 502.238 700C502.071 697.332 502.002 694.787 502.05 692.125C502.057 691.388 502.063 690.65 502.07 689.891C502.17 682.574 502.644 675.292 503.238 668C501.588 667.67 499.938 667.34 498.238 667C498.284 667.557 498.331 668.114 498.379 668.688C498.665 674.746 497.63 678.947 494.238 684C492.941 685.369 491.62 686.717 490.238 688C490.238 688.66 490.238 689.32 490.238 690C490.857 690.268 491.475 690.536 492.113 690.813C494.238 692 494.238 692 496.238 695C496.927 699.277 496.817 702.892 494.8 706.75C485.901 714.564 475.839 716.683 464.199 716.387C458.668 715.847 454.783 714.099 450.238 711C449.31 710.402 448.382 709.804 447.425 709.188C440.474 702.236 438.03 694.232 437.613 684.625C437.555 683.521 437.555 683.521 437.496 682.395C437.402 680.597 437.319 678.798 437.238 677C436.511 677.688 436.511 677.688 435.769 678.391C425.911 687.415 416.476 690.168 403.238 690C403.296 691.146 403.354 692.292 403.414 693.473C403.904 707.281 403.904 707.281 400.925 711.5C396.797 715.341 393.1 715.407 387.683 715.344C385.238 715 385.238 715 382.238 712.875C378.165 707.02 377.95 701.578 378.007 694.695C378.007 693.791 378.007 692.886 378.007 691.954C378.01 689.011 378.029 686.068 378.05 683.125C378.06 681.097 378.069 679.069 378.079 677.041C378.107 671.977 378.153 666.913 378.208 661.848C378.236 659.177 378.259 656.506 378.28 653.835C378.314 650.071 378.37 646.308 378.448 642.544C378.487 640.542 378.509 638.539 378.53 636.536C378.579 634.739 378.579 634.739 378.629 632.906C378.65 631.878 378.67 630.85 378.692 629.791C379.378 626.283 380.797 624.566 383.238 622C387.812 619.713 394.156 620.77 399.175 620.75Z" fill="#442024"/>
<path d="M571 302C571.33 302 571.66 302 572 302C572.044 303.064 572.044 303.064 572.088 304.149C572.729 318.109 573.351 330.516 580 343C580.465 343.937 580.931 344.874 581.41 345.84C584.862 352.234 589.459 356.407 595 361C596.712 362.629 598.355 364.302 600 366C599.34 367.32 598.68 368.64 598 370C594.644 369.401 592.622 368.154 590 366C589.691 367.176 589.691 367.176 589.375 368.375C581.779 388.4 564.702 400.438 546 409C543.675 410.021 541.341 411.015 539 412C539.349 412.675 539.699 413.351 540.059 414.047C540.514 414.939 540.969 415.831 541.438 416.75C542.116 418.073 542.116 418.073 542.809 419.422C545.773 425.838 546.311 433.144 544.023 439.871C540.556 447.199 540.556 447.199 536 449C536 449.66 536 450.32 536 451C529.897 454.616 525.106 456.12 518 455C511.153 452.73 505.005 448.464 501.625 442C498.493 434.209 499.099 425.74 502 418C477.212 419.575 449.773 424.969 430 441C429.113 441.654 428.226 442.307 427.312 442.98C416.645 451.115 408.585 461.308 404 474C403.683 474.847 403.366 475.694 403.039 476.566C399.333 487.975 399.532 501.838 404 513C405.734 515.952 407.672 518.496 410 521C410.589 521.735 411.178 522.47 411.785 523.227C414.862 525.69 416.633 525.284 420.5 524.875C421.624 524.769 422.748 524.664 423.906 524.555C427.045 524.165 430.147 523.628 433.262 523.078C441.899 521.615 450.6 520.753 459.312 519.875C460.193 519.785 461.073 519.696 461.979 519.603C475.702 518.221 489.2 517.465 503 518C502.34 517.01 501.68 516.02 501 515C501 514.01 501 513.02 501 512C505.314 512.479 507.166 513.746 510 517C510 515.35 510 513.7 510 512C510.99 512.33 511.98 512.66 513 513C512.708 509.594 512.055 508.068 509.875 505.375C502.914 499.625 496.783 499.601 488.062 499.812C486.997 499.826 485.932 499.84 484.834 499.854C482.222 499.889 479.611 499.938 477 500C477.602 497.98 478.273 495.979 479 494C479.66 493.67 480.32 493.34 481 493C481 491.35 481 489.7 481 488C481.33 488.99 481.66 489.98 482 491C482.66 491 483.32 491 484 491C484.33 492.32 484.66 493.64 485 495C485.66 494.67 486.32 494.34 487 494C494.823 493.466 501.968 493.277 509 497C509.33 497.99 509.66 498.98 510 500C512.015 500.733 512.015 500.733 514 501C514.083 501.619 514.165 502.238 514.25 502.875C514.498 503.576 514.745 504.277 515 505C515.975 505.412 515.975 505.412 516.969 505.832C519 507 519 507 519.828 509.207C520.037 510.497 520.037 510.497 520.25 511.812C520.474 513.091 520.474 513.091 520.703 514.395C520.995 516.956 521.055 519.425 521 522C517 524 517 524 500 524C517.82 524.495 517.82 524.495 536 525C536 525.33 536 525.66 536 526C535.367 526.006 534.735 526.012 534.083 526.018C493.013 526.206 493.013 526.206 452.124 529.602C449.046 529.994 445.966 530.345 442.883 530.688C403.749 535.191 362.512 545.841 332 572C331.463 572.455 330.927 572.909 330.374 573.377C322.667 579.96 316.222 587.059 310.145 595.164C308 598 308 598 306 600C306.479 587.534 313.942 577.962 322 569C322.592 568.314 323.183 567.628 323.793 566.922C340.002 549.318 364.709 539.861 386.938 532.688C387.718 532.433 388.499 532.178 389.304 531.916C394.213 530.377 398.878 529.495 404 529C401.69 525.37 399.38 521.74 397 518C395.701 518.433 394.401 518.866 393.062 519.312C391.375 519.875 389.688 520.438 388 521C387.037 521.376 387.037 521.376 386.055 521.76C380.026 524.007 374.595 524.508 368.188 524.438C366.735 524.425 366.735 524.425 365.253 524.412C353.311 524.131 344.858 521.076 336 513C335.008 512.128 335.008 512.128 333.996 511.238C328.901 506.505 326.357 502.452 325.625 495.375C326.031 491.724 326.771 489.889 329 487C332.551 484.633 334.9 484.251 339 485C341.831 486.105 344.533 487.36 347.254 488.711C356.081 492.855 367.896 494.061 377.375 491C379.163 490.144 379.163 490.144 381 489C381.892 488.52 382.784 488.041 383.703 487.547C391.172 482.954 393.799 477.891 396.562 469.941C404.543 447.128 423.979 432.342 445 422C464.09 413.03 486.074 409.886 506.91 408.309C520.668 407.331 520.668 407.331 534 404C534.672 403.772 535.344 403.544 536.036 403.309C552.563 397.606 568.947 389.394 577 373C577.455 372.17 577.91 371.34 578.379 370.484C578.852 369.603 579.325 368.721 579.812 367.812C580.252 366.994 580.692 366.175 581.145 365.332C582.152 362.586 582.127 361.67 581 359C579.932 357.316 578.801 355.672 577.625 354.062C576.405 352.383 575.197 350.696 574 349C573.149 347.9 573.149 347.9 572.281 346.777C570.396 342.691 570.719 338.937 570.875 334.5C571.006 329.469 571.053 324.938 570 320C569.907 317.26 569.86 314.551 569.875 311.812C569.871 311.089 569.867 310.365 569.863 309.619C569.873 304.253 569.873 304.253 571 302Z" fill="#442024"/>
<path d="M594.613 620.75C595.743 620.729 596.874 620.709 598.039 620.688C612.242 620.622 626.955 624.237 637.648 634.172C649.185 647.437 651.278 661.059 650.238 678C649.67 681.609 648.745 684.68 647.238 688C646.921 688.74 646.604 689.48 646.277 690.242C640.27 702.554 629.808 709.339 617.379 714.094C610.42 716.102 603.368 716.207 596.175 716.25C595.316 716.271 594.457 716.291 593.572 716.313C588.014 716.346 584.06 715.865 579.238 713C575.399 708.389 574.716 704.83 574.972 699.016C575.01 697.316 575.047 695.616 575.084 693.916C575.11 692.978 575.137 692.041 575.165 691.074C575.274 686.487 575.28 681.901 575.297 677.312C575.323 672.122 575.383 666.933 575.445 661.744C575.474 659.06 575.497 656.376 575.509 653.692C575.527 649.768 575.577 645.845 575.629 641.922C575.63 640.727 575.631 639.532 575.632 638.301C575.749 631.692 576.197 627.335 580.238 622C584.453 619.893 589.983 620.77 594.613 620.75Z" fill="#F4B25A"/>
<path d="M212.488 624C219.104 628.811 222.361 637.909 225.925 645.062C226.411 646.017 226.896 646.972 227.396 647.955C229.878 652.914 231.957 657.599 233.238 663C233.898 663 234.558 663 235.238 663C235.47 662.037 235.702 661.074 235.941 660.082C237.315 655.287 239.624 651.059 241.988 646.687C242.437 645.85 242.887 645.012 243.35 644.148C244.638 641.761 245.937 639.38 247.238 637C247.826 635.904 248.414 634.809 249.019 633.68C251.727 628.854 253.973 625.271 259.238 623C264.048 622.185 267.304 622.525 271.675 624.75C274.951 627.626 276.068 629.484 276.554 633.83C276.601 635.468 276.601 635.468 276.649 637.139C276.708 639.002 276.708 639.002 276.769 640.903C276.803 642.258 276.837 643.614 276.871 644.969C276.912 646.369 276.954 647.77 276.997 649.17C277.107 652.861 277.206 656.552 277.302 660.243C277.382 663.225 277.471 666.206 277.559 669.188C277.666 672.781 277.769 676.375 277.871 679.969C277.89 680.639 277.909 681.31 277.929 682.001C278.05 686.334 278.151 690.666 278.238 695C278.266 696.147 278.293 697.293 278.322 698.474C278.346 700.077 278.346 700.077 278.37 701.713C278.396 703.117 278.396 703.117 278.422 704.549C278.129 708.453 276.913 710.176 274.238 713C270.019 715.533 266.045 715.808 261.238 715C257.822 713.318 255.726 711.032 254.086 707.562C252.858 702.405 253.028 697.405 253.113 692.125C253.122 691.055 253.131 689.985 253.14 688.883C253.164 686.255 253.197 683.628 253.238 681C252.578 681 251.918 681 251.238 681C250.99 681.66 250.743 682.32 250.488 683C245.324 695.393 245.324 695.393 239.238 699C234.279 699.913 230.661 699.753 226.168 697.375C222.827 694.667 221.315 692.251 219.363 688.437C218.767 687.302 218.172 686.166 217.558 684.996C216.238 682 216.238 682 216.238 679C215.578 679 214.918 679 214.238 679C214.254 679.69 214.269 680.381 214.286 681.092C214.348 684.249 214.387 687.405 214.425 690.562C214.451 691.649 214.476 692.735 214.502 693.853C214.569 701.271 214.162 706.528 209.238 712.375C205.895 715.091 202.548 715.391 198.308 715.359C194.615 714.718 192.816 712.641 190.238 710C188.544 706.613 189.076 702.778 189.089 699.055C189.092 698.128 189.094 697.202 189.096 696.248C189.176 685.343 189.765 674.467 190.41 663.583C190.615 660.081 190.806 656.578 190.996 653.074C191.125 650.823 191.255 648.572 191.386 646.32C191.469 644.767 191.469 644.767 191.554 643.183C192.356 630.157 192.356 630.157 196.8 625.062C201.657 621.464 207.007 622.313 212.488 624Z" fill="#492622"/>
<path d="M574 294C579.279 294.546 583.763 295.837 588.625 298C589.317 298.307 590.009 298.614 590.723 298.93C604.479 305.264 615.312 314.626 624 327C625.069 326.606 625.069 326.606 626.16 326.203C633.786 323.699 633.786 323.699 637.078 324.516C638.886 325.542 640.412 326.659 642 328C642.534 328.412 643.067 328.825 643.617 329.25C648.677 333.278 652.249 336.968 655.062 342.812C655.573 343.871 656.083 344.929 656.609 346.02C660.112 353.527 662.195 359.373 662.188 367.75C662.188 368.463 662.189 369.176 662.189 369.91C662.139 374.945 661.586 379.241 660 384C659.34 384 658.68 384 658 384C657.773 384.846 657.546 385.691 657.312 386.562C654.217 394.671 648.659 399.988 641 404C632.978 406.989 625.918 407.016 617.938 404C607.195 399.049 601.164 392.038 597 381C596.104 377.683 595.437 374.407 595 371C596.32 370.01 597.64 369.02 599 368C598.079 364.087 596.482 362.425 593.312 360.188C581.824 351.934 574.708 338.226 572.387 324.328C571.828 319.145 571.816 313.958 571.812 308.75C571.8 307.77 571.788 306.791 571.775 305.781C571.773 304.838 571.772 303.894 571.77 302.922C571.765 302.072 571.761 301.222 571.757 300.347C572.019 297.815 572.727 296.185 574 294Z" fill="#FBB956"/>
<path d="M790.238 649C791.923 649.968 793.598 650.956 795.238 652C796.042 651.175 796.847 650.35 797.675 649.5C801.038 646.718 803.75 646.234 808.058 646.539C811.843 647.339 814.168 648.821 816.238 652C818.894 659.04 819.647 666.588 820.699 673.996C821.407 677.942 822.653 681.327 824.238 685C827.727 677.922 828.798 670.542 830.08 662.805C831.305 656.266 832.772 651.168 838.238 647C843.065 645.447 847.3 646.531 851.738 648.75C854.162 650.931 855.109 652.024 856.238 655C856.528 663.865 854.242 672.803 852.238 681.375C852.087 682.023 851.936 682.671 851.78 683.339C847.172 702.871 841.081 724.666 823.238 736C817.725 738.818 811.299 738.689 805.238 738C801.465 736.533 799.49 734.378 797.238 731C796.674 726.087 796.694 723.979 799.113 719.625C802.155 716.382 805.654 716.007 809.933 715.52C812.583 714.922 813.534 714.065 815.238 712C814.73 711.611 814.222 711.221 813.699 710.82C801.144 700.617 797.962 686.105 794.238 671C793.764 671.495 793.289 671.99 792.8 672.5C789.034 674.704 785.507 674.611 781.238 674C778.675 672.5 778.675 672.5 777.238 671C773.595 672.171 771.896 674.349 770.081 677.644C768.268 682.712 768.721 688.242 768.738 693.562C768.785 708.317 768.785 708.317 764.238 713C760.259 715.713 755.89 715.805 751.238 715C747.666 713.073 745.542 710.913 744.238 707C744.12 705.232 744.059 703.461 744.029 701.69C744.01 700.605 743.991 699.52 743.971 698.403C743.913 693.452 743.864 688.501 743.833 683.55C743.811 680.937 743.777 678.324 743.73 675.711C743.664 671.945 743.636 668.18 743.617 664.414C743.589 663.246 743.561 662.078 743.532 660.875C743.553 652.99 743.553 652.99 745.523 650.143C748.619 647.451 751.294 646.347 755.363 646.5C756.19 646.51 757.018 646.521 757.871 646.531C760.238 647 760.238 647 762.293 648.594C764.113 650.24 764.113 650.24 766.25 649.785C768.191 649.019 770.127 648.248 772.05 647.437C778.865 644.876 783.776 645.769 790.238 649Z" fill="#452723"/>
<path d="M296.238 647C299.453 648.631 301.633 650.833 303.308 654.066C304.883 659.036 305.349 664.185 306.005 669.344C306.805 675.174 308.177 680.488 310.238 686C313.374 677.794 315.231 669.699 316.579 661.032C317.587 655.276 319.053 652.126 323.238 648C326.71 646.264 330.442 646.534 334.238 647C337.395 648.607 339.432 649.974 341.613 652.75C343.698 660.257 341.377 667.909 339.613 675.25C339.341 676.395 339.069 677.54 338.788 678.72C327.818 724.126 327.818 724.126 313.8 733.188C312.689 733.92 312.689 733.92 311.554 734.668C306.851 737.373 303.187 738.293 297.738 738.313C296.634 738.329 295.531 738.346 294.394 738.363C290.108 737.87 287.541 736.213 284.425 733.313C282.711 729.974 282.382 726.617 283.238 723C286.102 718.345 288.791 717.091 293.988 715.688C295.158 715.361 296.329 715.035 297.535 714.699C298.873 714.353 298.873 714.353 300.238 714C299.49 710.797 299.49 710.797 296.613 709.063C286.115 700.609 282.408 684.923 280.562 672.188C278.795 654.811 278.795 654.811 282.613 650.125C287.017 646.56 290.679 646.168 296.238 647Z" fill="#452728"/>
<path d="M480 464C483.089 464.331 484.003 465.003 486.188 467.312C489.284 471.905 489.716 476.514 489 482C487.879 485.436 486.507 488.717 485 492C486.558 491.93 486.558 491.93 488.148 491.859C498.331 491.54 505.62 492.447 514.312 498.188C518.875 502.962 522.124 507.55 522.133 514.293C522.089 515.516 522.045 516.74 522 518C522.783 517.99 523.566 517.979 524.373 517.968C541.706 517.768 558.739 518.165 576 520C575.615 519.502 575.231 519.005 574.835 518.492C564.232 504.593 557.707 491.876 559 474C560 473 560 473 562.562 472.938C563.367 472.958 564.171 472.979 565 473C565.063 473.897 565.126 474.794 565.191 475.719C566.781 491.919 572.5 505.217 585 516C590.995 520.264 596.728 521.062 603.938 522C606.263 522.328 608.589 522.657 610.914 522.988C612.091 523.153 613.269 523.317 614.481 523.487C619.943 524.283 625.375 525.241 630.812 526.188C638.873 527.568 646.817 528.68 655 529C654.505 528.072 654.01 527.144 653.5 526.188C652 523 652 523 652 520C655.107 520.336 656.604 520.59 658.812 522.875C660 525 660 525 660 528C661.32 528 662.64 528 664 528C663.484 527.092 662.969 526.185 662.438 525.25C661 522 661 522 661.312 519.625C661.653 518.821 661.653 518.821 662 518C665.161 519.37 665.993 519.989 668 523C668 522.051 668 521.103 668 520.125C668 518.417 668 516.708 668 515C666.708 513.627 665.376 512.29 664 511C664.33 510.01 664.66 509.02 665 508C667.293 507.738 667.293 507.738 670 508C671.801 509.793 671.801 509.793 673.312 512.188C673.824 512.965 674.336 513.742 674.863 514.543C676.116 517.251 676.225 519.053 676 522C677.65 522 679.3 522 681 522C680.01 517.545 680.01 517.545 679 513C683 514 683 514 684.25 515.875C685 518 685 518 685 521C685.66 521 686.32 521 687 521C686.578 514.652 686.578 514.652 684 509C682.686 508.296 681.349 507.635 680 507C677.333 505.667 674.667 504.333 672 503C672 502.34 672 501.68 672 501C671.34 501 670.68 501 670 501C669.34 500.01 668.68 499.02 668 498C667.01 497.67 666.02 497.34 665 497C664.67 495.35 664.34 493.7 664 492C663.34 492.66 662.68 493.32 662 494C660.375 492.312 660.375 492.312 659 490C659.688 487.5 659.688 487.5 661 485C661.371 484.237 661.743 483.474 662.125 482.688C662.414 482.131 662.702 481.574 663 481C662.34 481 661.68 481 661 481C661 480.34 661 479.68 661 479C661.99 479 662.98 479 664 479C664 478.34 664 477.68 664 477C664.66 477 665.32 477 666 477C666.043 478.666 666.041 480.334 666 482C665.67 482.33 665.34 482.66 665 483C664.632 485.328 664.298 487.662 664 490C664.598 490.12 665.196 490.24 665.812 490.363C668.605 491.176 670.504 492.815 672.805 494.543C675.468 496.311 678.239 497.628 681.125 499C685.677 501.216 688.809 503.089 692 507C692.526 507.597 693.052 508.194 693.594 508.809C696.182 512.841 695.596 517.387 695 522C692.789 526.421 689.797 527.931 685.285 529.457C682.777 530.053 680.383 530.265 677.812 530.438C674.263 530.686 673.3 530.759 670.438 533.062C666.834 535.927 663.44 535.348 659 535C659 535.66 659 536.32 659 537C659.641 537.092 660.281 537.183 660.941 537.277C679.485 541.659 695.998 552.518 710 565C711.31 566.066 712.622 567.129 713.938 568.188C722.85 575.961 729.848 588.255 731 600C728.494 597.698 726.521 595.087 724.488 592.369C703.872 565.046 673.413 549.319 641 540C640.069 539.73 639.139 539.459 638.18 539.181C625.787 535.631 613.459 532.914 600.666 531.331C597.854 530.982 595.046 530.604 592.238 530.227C561.676 526.273 530.776 525.676 500 525C499.67 524.34 499.34 523.68 499 523C500.879 523.017 500.879 523.017 502.797 523.035C504.448 523.045 506.099 523.054 507.75 523.062C508.575 523.071 509.4 523.079 510.25 523.088C511.449 523.093 511.449 523.093 512.672 523.098C513.405 523.103 514.138 523.108 514.894 523.114C517.046 522.998 518.931 522.591 521 522C520.604 519.537 520.185 517.082 519.75 514.625C519.64 513.926 519.531 513.228 519.418 512.508C518.735 508.375 518.735 508.375 515.891 505.523C515.267 505.351 514.643 505.178 514 505C514 503.68 514 502.36 514 501C512.35 500.67 510.7 500.34 509 500C509 499.34 509 498.68 509 498C501.194 494.097 493.512 494.721 485 495C484.67 493.68 484.34 492.36 484 491C483.34 491 482.68 491 482 491C481.67 491.66 481.34 492.32 481 493C481.66 493.33 482.32 493.66 483 494C482.381 494.062 481.762 494.124 481.125 494.188C480.424 494.456 479.723 494.724 479 495C478.567 496.237 478.567 496.237 478.125 497.5C477.754 498.325 477.382 499.15 477 500C473.875 500.812 473.875 500.812 471 501C471.532 496.86 472.756 494.666 475.438 491.5C479.345 486.866 481.288 483.071 481.25 476.938C481.255 476.101 481.26 475.264 481.266 474.402C480.982 471.84 480.185 470.26 479 468C479.375 465.75 479.375 465.75 480 464Z" fill="#3E1F2A"/>
<path d="M730.425 649.75C735.682 653.955 738.408 658.54 740.238 665C740.453 667.693 740.585 670.295 740.617 672.988C740.634 673.732 740.651 674.476 740.668 675.242C740.721 677.599 740.762 679.956 740.8 682.312C740.844 684.687 740.891 687.062 740.943 689.436C740.975 690.91 741.002 692.383 741.023 693.857C740.802 697.215 740.802 697.215 742.238 700C742.906 705.154 743.122 708.829 739.925 713.062C735.683 716.121 731.383 716.829 726.238 716C725.475 715.257 724.712 714.515 723.925 713.75C723.039 713.172 722.152 712.595 721.238 712C718.414 712.736 715.839 713.838 713.144 714.957C706.649 717.288 700.253 716.631 693.984 713.906C688.41 711.013 685.971 707.467 683.238 702C681.39 696.129 681.18 688.898 683.425 683.125C685.328 679.844 687.572 677.666 690.238 675C690.608 670.954 690.608 670.954 688.238 668C687.431 664.066 687.564 660.488 689.23 656.809C693.418 650.575 699.517 647.154 706.746 645.387C715.789 643.983 722.498 645.397 730.425 649.75Z" fill="#F9B551"/>
<path d="M705 278C713.022 294.94 714.474 314.291 708.729 332.126C707.565 335.119 705.905 337.735 704.188 340.438C701.483 344.776 700.128 347.387 701.203 352.445C702.669 357.146 704.187 361.813 705.844 366.449C707.715 372.195 708.119 377.348 708.062 383.375C708.053 384.62 708.044 385.865 708.035 387.148C708.024 388.089 708.012 389.03 708 390C707.67 388.68 707.34 387.36 707 386C706.34 386 705.68 386 705 386C704.072 384.67 704.072 384.67 703.125 383.313C699.925 379.27 695.783 378.086 691.082 376.289C685.513 373.96 679.994 370.603 676 366C676 365.34 676 364.68 676 364C675.34 364 674.68 364 674 364C672.825 360.899 671.662 357.794 670.5 354.688C670.166 353.806 669.832 352.925 669.488 352.018C669.172 351.17 668.857 350.322 668.531 349.449C668.238 348.669 667.945 347.889 667.643 347.085C667 345 667 345 667 342C666.34 342 665.68 342 665 342C664.328 340.711 663.663 339.419 663 338.125C662.629 337.406 662.257 336.686 661.875 335.945C661 334 661 334 661 332C660.01 331.67 659.02 331.34 658 331C656.641 329.188 656.641 329.188 655.25 327C653.158 323.991 653.158 323.991 650.055 322.25C647.933 321.933 647.933 321.933 645 322C645 321.67 645 321.34 645 321C652.26 320.67 659.52 320.34 667 320C667.846 317.731 668.691 315.463 669.562 313.125C674.629 300.238 689.065 276.973 705 278Z" fill="#FAB756"/>
<path d="M571 302C571.33 302 571.66 302 572 302C572.029 302.709 572.058 303.418 572.088 304.149C572.729 318.109 573.351 330.516 580 343C580.465 343.937 580.931 344.874 581.41 345.84C584.862 352.234 589.459 356.407 595 361C596.712 362.629 598.355 364.302 600 366C599.01 367.98 599.01 367.98 598 370C594.644 369.401 592.622 368.154 590 366C589.794 366.784 589.588 367.567 589.375 368.375C581.779 388.4 564.702 400.438 546 409C543.675 410.021 541.341 411.015 539 412C539.349 412.675 539.699 413.351 540.059 414.047C540.514 414.939 540.969 415.831 541.438 416.75C541.89 417.632 542.342 418.513 542.809 419.422C545.773 425.838 546.311 433.144 544.023 439.871C540.556 447.199 540.556 447.199 536 449C536 449.66 536 450.32 536 451C529.897 454.616 525.106 456.12 518 455C511.153 452.73 505.005 448.464 501.625 442C498.493 434.209 499.099 425.74 502 418C491.025 418.697 480.528 420.074 469.875 422.875C468.941 423.119 468.007 423.364 467.045 423.616C461.523 425.13 456.27 426.994 451 429.235C449 430 449 430 447 430C447 429.34 447 428.68 447 428C445.907 428.041 444.814 428.082 443.688 428.125C440 428 440 428 437 426C460.741 414.691 484.607 409.874 510.812 407.938C518.822 407.336 526.362 406.646 534 404C535.008 403.658 535.008 403.658 536.036 403.309C552.563 397.606 568.947 389.394 577 373C577.455 372.17 577.91 371.34 578.379 370.484C578.852 369.603 579.325 368.721 579.812 367.812C580.252 366.994 580.692 366.175 581.145 365.332C582.152 362.586 582.127 361.67 581 359C579.932 357.316 578.801 355.672 577.625 354.062C576.405 352.383 575.197 350.696 574 349C573.433 348.267 572.866 347.533 572.281 346.777C570.396 342.691 570.719 338.937 570.875 334.5C571.006 329.469 571.053 324.938 570 320C569.907 317.26 569.86 314.551 569.875 311.812C569.871 311.089 569.867 310.365 569.863 309.619C569.873 304.253 569.873 304.253 571 302Z" fill="#442124"/>
<path d="M613 582C614.41 582.166 615.823 582.31 617.238 582.43C618.045 582.501 618.851 582.572 619.682 582.646C620.55 582.721 621.418 582.797 622.312 582.875C654.653 585.878 686.465 591.223 718 599C718 599.33 718 599.66 718 600C713.402 600.075 709.051 599.829 704.5 599.188C682.214 596.243 659.768 594.602 637.354 593.002C636.111 592.913 636.111 592.913 634.844 592.821C633.301 592.71 631.757 592.601 630.213 592.494C629.512 592.444 628.811 592.393 628.088 592.341C627.189 592.278 627.189 592.278 626.272 592.214C624.363 592.034 622.461 591.782 620.563 591.513C614.699 590.772 608.809 590.638 602.906 590.448C601.633 590.406 600.36 590.364 599.048 590.321C585.549 589.907 572.053 589.835 558.549 589.833C556.461 589.832 554.374 589.83 552.286 589.827C544.905 589.818 537.524 589.814 530.143 589.815C524.163 589.815 518.183 589.808 512.204 589.794C466.441 589.69 420.852 590.256 375.25 594.5C372.831 594.716 370.412 594.931 367.992 595.145C357.65 596.066 347.313 597.04 336.984 598.094C335.819 598.21 335.819 598.21 334.631 598.328C331.595 598.647 328.907 599.031 326 600C324.439 600.067 322.875 600.085 321.312 600.063C320.1 600.049 320.1 600.049 318.863 600.035C318.248 600.024 317.634 600.012 317 600C320.024 597.984 321.762 597.476 325.262 596.781C326.299 596.571 327.336 596.361 328.404 596.145C330.029 595.826 330.029 595.826 331.688 595.5C333.817 595.074 335.946 594.647 338.074 594.219C339.103 594.012 340.131 593.805 341.191 593.593C343.459 593.114 345.687 592.584 347.926 591.988C425.897 571.988 534.379 565.716 613 582Z" fill="#41222B"/>
<path d="M201.238 630C206.707 629.193 206.707 629.193 209.238 630C213.033 633.895 215.528 638.035 217.863 642.938C218.188 643.603 218.513 644.268 218.847 644.953C219.988 647.297 221.113 649.648 222.238 652C223.225 654.053 224.212 656.107 225.199 658.16C227.89 663.768 230.568 669.382 233.238 675C233.898 675 234.558 675 235.238 675C235.554 674.362 235.871 673.724 236.197 673.067C246.838 651.633 246.838 651.633 252.238 641.25C252.761 640.225 252.761 640.225 253.294 639.18C255.19 635.573 256.973 632.492 260.238 630C262.597 629.609 262.597 629.609 264.988 629.75C265.787 629.786 266.586 629.822 267.41 629.859C268.315 629.929 268.315 629.929 269.238 630C270.348 633.637 270.454 637.136 270.583 640.924C270.619 641.956 270.619 641.956 270.657 643.01C270.736 645.279 270.808 647.547 270.879 649.816C270.903 650.592 270.928 651.368 270.954 652.168C271.085 656.269 271.211 660.37 271.333 664.471C271.459 668.711 271.604 672.95 271.754 677.189C271.865 680.448 271.963 683.707 272.057 686.966C272.105 688.53 272.157 690.093 272.215 691.656C272.295 693.839 272.355 696.022 272.411 698.205C272.45 699.448 272.489 700.69 272.529 701.971C272.238 705 272.238 705 270.915 706.901C268.296 708.617 266.282 708.381 263.238 708C261.596 706.917 261.596 706.917 260.238 705C259.714 701.836 259.714 701.836 259.507 697.945C259.447 696.899 259.447 696.899 259.386 695.832C259.261 693.597 259.156 691.361 259.05 689.125C258.969 687.659 258.886 686.193 258.802 684.727C258.331 676.146 258.128 667.596 258.238 659C257.248 659 256.258 659 255.238 659C254.964 659.872 254.69 660.744 254.408 661.642C252.522 667.056 249.867 672.07 247.3 677.188C246.493 678.826 246.493 678.826 245.67 680.498C245.147 681.544 244.624 682.59 244.086 683.668C243.611 684.62 243.137 685.571 242.648 686.552C240.917 689.557 239.57 691.604 236.187 692.609C232.783 692.821 230.286 692.883 227.597 690.617C222.997 684.171 220.164 676.365 217.07 669.109C215.676 665.912 214.266 662.856 212.238 660C211.578 660 210.918 660 210.238 660C210.163 661.312 210.088 662.624 210.01 663.976C209.728 668.844 209.427 673.712 209.121 678.579C208.991 680.686 208.866 682.792 208.746 684.899C208.573 687.929 208.382 690.956 208.187 693.984C208.137 694.926 208.087 695.868 208.035 696.838C207.975 697.719 207.916 698.6 207.854 699.507C207.807 700.28 207.761 701.052 207.713 701.849C207.114 704.562 206.161 706.006 204.238 708C200.675 708.438 200.675 708.438 197.238 708C192.161 700.385 195.456 685.329 196.037 676.229C196.177 674.041 196.308 671.851 196.439 669.662C196.826 663.393 197.335 657.219 198.238 651C198.347 649.497 198.432 647.991 198.484 646.484C198.517 645.708 198.55 644.932 198.584 644.133C198.645 642.529 198.703 640.925 198.755 639.32C198.79 638.549 198.824 637.779 198.859 636.984C198.884 636.291 198.909 635.597 198.935 634.882C199.238 633 199.238 633 201.238 630Z" fill="#F6B355"/>
<path d="M420.175 628.5C427.523 631.573 434.456 637.146 437.648 644.605C439.595 652.511 439.276 660.873 435.429 668.109C430.864 675.354 424.51 680.518 416.238 683C409.573 684.169 402.991 684.101 396.238 684C396.248 684.656 396.259 685.312 396.27 685.988C396.311 688.95 396.337 691.912 396.363 694.875C396.388 696.424 396.388 696.424 396.414 698.004C396.42 698.99 396.427 699.976 396.433 700.992C396.444 701.903 396.454 702.815 396.465 703.753C396.238 706 396.238 706 394.238 708C390.738 708.313 390.738 708.313 387.238 708C384.838 704.401 384.968 701.836 385.011 697.683C385.011 696.941 385.01 696.199 385.01 695.435C385.011 692.984 385.027 690.533 385.043 688.082C385.046 686.382 385.049 684.683 385.051 682.983C385.059 678.51 385.078 674.037 385.101 669.563C385.121 664.999 385.13 660.434 385.14 655.869C385.162 646.913 385.196 637.956 385.238 629C394.349 624.154 410.504 625.658 420.175 628.5Z" fill="#F8B454"/>
<path d="M790.238 649C791.923 649.968 793.598 650.956 795.238 652C796.042 651.175 796.847 650.35 797.675 649.5C801.038 646.718 803.75 646.234 808.058 646.539C811.843 647.339 814.168 648.821 816.238 652C818.894 659.04 819.647 666.588 820.699 673.996C821.407 677.942 822.653 681.327 824.238 685C827.727 677.922 828.798 670.542 830.08 662.805C831.305 656.266 832.772 651.168 838.238 647C843.065 645.447 847.3 646.531 851.738 648.75C854.162 650.931 855.109 652.024 856.238 655C856.528 663.865 854.242 672.803 852.238 681.375C852.087 682.023 851.936 682.671 851.78 683.339C847.172 702.871 841.081 724.666 823.238 736C817.725 738.818 811.299 738.689 805.238 738C801.465 736.533 799.49 734.378 797.238 731C796.674 726.087 796.694 723.979 799.113 719.625C802.155 716.382 805.654 716.007 809.933 715.52C812.583 714.922 813.534 714.065 815.238 712C814.684 711.553 814.129 711.105 813.558 710.645C806.363 704.64 806.363 704.64 805.238 700C806.888 700 808.538 700 810.238 700C810.238 700.66 810.238 701.32 810.238 702C810.898 702 811.558 702 812.238 702C812.733 703.98 812.733 703.98 813.238 706C814.352 706.227 815.465 706.454 816.613 706.687C820.238 708 820.238 708 821.675 710.625C821.861 711.409 822.047 712.192 822.238 713C821.557 713.588 821.557 713.588 820.863 714.187C819.068 715.952 819.068 715.952 818.363 718.562C817.238 721 817.238 721 815.05 722.25C811.796 723.118 808.581 723.607 805.238 724C804.546 725.847 804.546 725.847 804.238 728C805.85 731.168 805.85 731.168 808.34 731.469C814.214 731.541 817.784 730.682 822.547 727.191C824.238 726 824.238 726 827.238 725C828.283 723.289 828.283 723.289 829.238 721C829.81 719.948 830.383 718.896 830.972 717.812C836.617 707.253 840.18 696.551 843.238 685C843.444 684.224 843.651 683.449 843.863 682.649C847.228 670.309 847.228 670.309 848.3 657.625C848.291 656.751 848.282 655.877 848.273 654.977C848.262 654.324 848.25 653.672 848.238 653C843.223 653.33 843.223 653.33 839.238 656C838.577 658.281 838.577 658.281 838.125 660.953C837.931 661.959 837.737 662.965 837.538 664.001C837.336 665.073 837.134 666.145 836.925 667.25C832.224 691.014 832.224 691.014 827.238 696C824.212 695.896 823.064 694.849 820.765 692.852C812.306 683.307 811.752 667.126 810.238 655C805.43 653.896 805.43 653.896 800.812 655.121C798.748 657.585 798.85 658.893 799.05 662.062C799.311 666.854 799.311 666.854 798.238 669C796.588 668.67 794.938 668.34 793.238 668C791.955 664.15 792.172 661.053 792.238 657C791.66 656.876 791.083 656.752 790.488 656.625C788.238 656 788.238 656 786.363 654.984C782.143 653.029 777.454 653.256 773.086 654.723C768.573 656.862 764.938 659.67 761.238 663C761.039 662.151 761.039 662.151 760.836 661.285C760.659 660.552 760.482 659.818 760.3 659.062C760.126 658.332 759.952 657.601 759.773 656.848C759.399 655 759.399 655 758.238 654C755.928 654.33 753.618 654.66 751.238 655C750.908 671.5 750.578 688 750.238 705C749.908 705 749.578 705 749.238 705C749.238 700.38 749.238 695.76 749.238 691C747.918 691.66 746.598 692.32 745.238 693C744.914 685.414 744.624 677.828 744.362 670.24C744.258 667.527 744.12 664.82 743.961 662.109C743.601 653.295 743.601 653.295 745.226 649.992C748.091 647.038 751.463 646.679 755.363 646.5C758.472 646.539 759.809 646.667 762.293 648.594C764.113 650.24 764.113 650.24 766.25 649.785C768.191 649.019 770.127 648.248 772.05 647.437C778.865 644.876 783.776 645.769 790.238 649Z" fill="#462523"/>
<path d="M671.238 623C675.884 625.058 679.328 627.156 681.238 632C681.994 637.617 680.647 640.665 677.625 645.203C676.273 646.954 674.84 648.478 673.238 650C673.877 650.289 674.517 650.577 675.175 650.875C677.238 652 677.238 652 678.238 654C678.336 656.066 678.369 658.135 678.371 660.203C678.373 661.484 678.375 662.765 678.378 664.084C678.374 665.473 678.369 666.861 678.363 668.25C678.361 668.945 678.358 669.641 678.356 670.358C678.338 675.239 678.295 680.119 678.238 685C678.225 686.162 678.213 687.324 678.2 688.522C678.155 691.537 678.08 694.549 677.988 697.562C677.974 698.44 677.96 699.318 677.945 700.222C677.733 705.572 676.81 708.77 673.238 713C669.206 715.688 665.975 715.925 661.238 715C657.861 712.961 655.015 710.555 653.238 707C652.64 695.642 653.316 684.21 653.931 672.864C654.01 671.376 654.085 669.888 654.156 668.399C654.259 666.278 654.381 664.159 654.507 662.039C654.576 660.804 654.644 659.568 654.714 658.295C655.425 653.825 657.07 651.168 660.238 648C659.434 647.237 658.629 646.474 657.8 645.687C654.282 641.997 653.882 639.109 653.957 634.062C654.561 629.631 657.17 626.89 660.488 624.125C664.176 622.616 667.361 622.232 671.238 623Z" fill="#4F2A23"/>
<path d="M594.238 637C604.637 637 614.769 638.48 623.238 645C629.163 651.289 632.808 657.991 632.675 666.75C632.667 667.454 632.659 668.159 632.65 668.885C632.36 677.914 629.467 684.677 623.3 691.242C614.463 698.774 605.722 699 594.238 699C594.238 678.54 594.238 658.08 594.238 637Z" fill="#4E1E18"/>
<path d="M480.05 653.25C485.202 656.079 488.58 658.707 491.238 664C491.983 668.959 492.314 674.355 490.394 679.074C486.749 683.963 481.181 685.385 475.507 686.57C471.596 687.084 467.801 687.109 463.863 687.062C463.127 687.058 462.391 687.053 461.632 687.049C459.834 687.037 458.036 687.019 456.238 687C456.443 687.543 456.648 688.085 456.859 688.645C457.128 689.36 457.398 690.075 457.675 690.812C458.076 691.874 458.076 691.874 458.484 692.957C459.1 694.627 459.675 696.312 460.238 698C465.405 700.031 473.274 700.245 478.367 698.105C479.994 697.075 481.616 696.038 483.238 695C486.675 694.75 486.675 694.75 489.238 695C490.05 697.687 490.05 697.687 490.238 701C486.519 706.578 480.567 708.467 474.238 710C465.924 711.157 459.07 710.033 452.238 705C446.005 698.819 444.187 692.339 443.863 683.687C444.063 673.387 448.057 665.34 455.238 658C462.534 652.38 471.103 649.632 480.05 653.25Z" fill="#F9B556"/>
<path d="M594.613 620.75C595.743 620.729 596.874 620.709 598.039 620.688C612.242 620.622 626.955 624.237 637.648 634.172C649.185 647.437 651.278 661.059 650.238 678C649.67 681.609 648.745 684.68 647.238 688C646.921 688.74 646.604 689.48 646.277 690.242C640.27 702.554 629.808 709.339 617.379 714.094C610.42 716.102 603.368 716.207 596.175 716.25C595.316 716.271 594.457 716.291 593.572 716.313C588.014 716.346 584.06 715.865 579.238 713C575.399 708.389 574.716 704.83 574.972 699.016C575.01 697.316 575.047 695.616 575.084 693.916C575.11 692.978 575.137 692.041 575.165 691.074C575.274 686.487 575.28 681.901 575.297 677.312C575.323 672.122 575.383 666.933 575.445 661.744C575.474 659.06 575.497 656.376 575.509 653.692C575.527 649.768 575.577 645.845 575.629 641.922C575.63 640.727 575.631 639.532 575.632 638.301C575.749 631.692 576.197 627.335 580.238 622C584.453 619.893 589.983 620.77 594.613 620.75ZM583.238 628C582.864 644.333 582.53 660.666 582.238 677C582.221 677.896 582.205 678.792 582.188 679.716C582.096 684.79 582.032 689.863 581.988 694.938C581.967 696.16 581.945 697.382 581.923 698.641C581.919 699.738 581.914 700.835 581.91 701.965C581.9 702.899 581.891 703.834 581.881 704.797C581.999 705.524 582.117 706.251 582.238 707C587.002 710.176 592.072 709.369 597.675 709.375C598.801 709.4 599.927 709.424 601.088 709.449C613.281 709.491 624.076 706.289 633.238 698C642.406 687.688 645.145 676.723 644.621 663.25C644.249 657.924 642.916 653.622 640.238 649C639.602 647.836 639.602 647.836 638.953 646.648C632.377 635.695 622.998 631.658 611.238 628C610.248 627.67 609.258 627.34 608.238 627C606.489 626.906 604.736 626.869 602.984 626.867C601.456 626.865 601.456 626.865 599.896 626.863C598.833 626.867 597.77 626.871 596.675 626.875C595.609 626.871 594.542 626.867 593.443 626.863C591.916 626.865 591.916 626.865 590.359 626.867C589.425 626.868 588.491 626.869 587.529 626.871C585.208 626.85 585.208 626.85 583.238 628Z" fill="#552A22"/>
<path d="M630 491C631.69 492.643 633.352 494.315 635 496C639.875 500.583 644.922 502.989 651.062 505.562C664.164 511.087 664.164 511.087 667.812 516.875C669.062 520.162 669.249 522.517 669 526C668.34 525.01 667.68 524.02 667 523C665.56 520.83 665.56 520.83 664 519C663.34 519 662.68 519 662 519C662.144 519.557 662.289 520.114 662.438 520.688C663.028 523.114 663.523 525.549 664 528C662.68 528 661.36 528 660 528C659.608 527.051 659.216 526.103 658.812 525.125C656.802 521.659 655.773 521.02 652 520C652.495 520.928 652.99 521.856 653.5 522.812C655 526 655 526 655 529C645.536 529.33 636.738 528.386 627.438 526.688C624.798 526.217 622.157 525.753 619.516 525.289C618.238 525.064 616.959 524.839 615.643 524.606C611.511 523.919 607.375 523.389 603.218 522.88C595.595 521.923 588.469 521.017 583 515C582.67 514.01 582.34 513.02 582 512C583.241 511.795 584.483 511.59 585.762 511.379C587.404 511.107 589.046 510.835 590.688 510.562C591.504 510.428 592.321 510.293 593.162 510.154C597.122 509.497 601.07 508.824 605 508C605 507.34 605 506.68 605 506C605.906 505.588 606.812 505.175 607.746 504.75C614.841 501.42 620.69 498.089 626.328 492.504C628 491 628 491 630 491Z" fill="#FBF9F8"/>
<path d="M292.3 653.25C295.238 654 295.238 654 297.238 655C297.761 658.027 298.181 661.016 298.55 664.062C300.504 679.601 300.504 679.601 307.086 693.5C309.156 695.236 309.156 695.236 311.832 695.066C314.378 694.194 314.378 694.194 315.644 691.902C318.865 683.172 320.775 674.374 322.451 665.228C322.641 664.224 322.831 663.219 323.027 662.184C323.189 661.282 323.351 660.38 323.518 659.451C324.324 656.706 325.27 655.07 327.238 653C330.3 652.625 330.3 652.625 333.238 653C335.584 655.346 335.557 655.804 335.613 659C335.437 667.184 333.229 675.103 331.238 683C331.045 683.77 330.853 684.54 330.654 685.333C326.414 702.043 321.949 719.447 307.238 730C302.99 732.411 298.028 732.834 293.238 732C291.449 730.645 291.449 730.645 290.238 729C290.659 724.579 290.659 724.579 292.238 723C293.779 722.808 295.321 722.622 296.863 722.438C302.222 721.424 304.612 719.287 307.898 715.043C309.383 712.779 310.503 710.612 311.238 708C310.413 707.979 309.588 707.959 308.738 707.938C302.631 706.302 298.712 701.912 294.925 697C291.08 690.164 289.39 683.808 288.05 676.125C287.873 675.183 287.696 674.24 287.513 673.27C285.301 660.916 285.301 660.916 286.238 656C288.331 653.217 288.692 652.955 292.3 653.25Z" fill="#F8B455"/>
<path d="M810.238 654C812.162 658.134 812.64 661.852 813.05 666.375C814.025 675.573 816.199 686.119 821.238 694C824.297 694.816 824.297 694.816 827.238 695C832.995 683.699 836.056 670.569 837.683 658.031C838.365 655.533 839.158 654.527 841.238 653C844.925 652.812 844.925 652.812 848.238 653C850.93 658.384 848.937 665.58 847.613 671.188C847.437 671.951 847.261 672.715 847.079 673.502C836.271 719.291 836.271 719.291 822.425 728.625C818.515 730.954 815.89 732.184 811.3 732.312C809.987 732.369 809.987 732.369 808.648 732.426C806.238 732 806.238 732 804.41 730.145C803.238 728 803.238 728 803.425 725.375C806.015 721.981 808.615 722.214 812.695 721.578C816.733 720.66 818.419 719.025 821.238 716C823.549 712.234 823.549 712.234 824.238 708C823.062 707.67 821.887 707.34 820.675 707C813.325 704.182 809.608 698.352 806.488 691.375C802.313 680.429 799.55 667.799 800.238 656C802.918 651.868 805.799 653.079 810.238 654Z" fill="#F7B458"/>
<path d="M730.425 649.75C735.682 653.955 738.408 658.54 740.238 665C740.453 667.693 740.585 670.295 740.617 672.988C740.634 673.732 740.651 674.476 740.668 675.242C740.721 677.599 740.762 679.956 740.8 682.312C740.844 684.687 740.891 687.062 740.943 689.436C740.975 690.91 741.002 692.383 741.023 693.857C740.802 697.215 740.802 697.215 742.238 700C742.906 705.154 743.122 708.829 739.925 713.062C735.683 716.121 731.383 716.829 726.238 716C725.475 715.257 724.712 714.515 723.925 713.75C723.039 713.172 722.152 712.595 721.238 712C718.414 712.736 715.839 713.838 713.144 714.957C706.649 717.288 700.253 716.631 693.984 713.906C688.41 711.013 685.971 707.467 683.238 702C681.39 696.129 681.18 688.898 683.425 683.125C685.328 679.844 687.572 677.666 690.238 675C690.608 670.954 690.608 670.954 688.238 668C687.431 664.066 687.564 660.488 689.23 656.809C693.418 650.575 699.517 647.154 706.746 645.387C715.789 643.983 722.498 645.397 730.425 649.75ZM695.238 660C693.844 662.789 693.981 664.921 694.238 668C696.975 670.241 696.975 670.241 699.675 669.937C703.02 668.714 704.178 666.841 706.238 664C709.122 662.558 711.655 662.906 714.863 662.937C716.051 662.947 717.24 662.956 718.464 662.965C719.38 662.976 720.295 662.988 721.238 663C721.898 666.96 722.558 670.92 723.238 675C721.982 674.942 720.727 674.884 719.433 674.824C707.836 674.447 700.468 675.141 691.113 682.437C687.539 687.339 688.407 694.325 689.238 700C690.719 703.574 692.702 705.984 695.98 708.152C699.082 709.317 701.807 709.302 705.113 709.312C706.307 709.329 707.5 709.346 708.73 709.363C713.471 708.872 716.713 707.144 720.488 704.312C722.238 703 722.238 703 724.238 703C724.795 703.99 725.352 704.98 725.925 706C726.689 706.99 727.452 707.98 728.238 709C731.865 709.584 731.865 709.584 735.238 709C735.568 708.67 735.898 708.34 736.238 708C736.004 705.99 735.767 703.981 735.518 701.973C735.186 698.445 735.097 694.946 735.027 691.402C735.013 690.719 734.999 690.036 734.984 689.332C734.926 686.482 734.871 683.632 734.837 680.781C734.991 668.053 734.991 668.053 729.519 656.941C728.637 656.259 728.637 656.259 727.738 655.562C726.856 654.853 726.856 654.853 725.957 654.129C722.119 651.608 718.389 651.803 713.925 651.75C711.982 651.711 711.982 651.711 710 651.672C703.39 652.248 699.585 655.156 695.238 660Z" fill="#4A2425"/>
<path d="M539 413C540.547 414.926 540.547 414.926 541.75 417.312C542.157 418.092 542.565 418.872 542.984 419.676C545.769 426.047 546.273 433.258 544.023 439.871C540.556 447.199 540.556 447.199 536 449C536 449.66 536 450.32 536 451C529.897 454.616 525.106 456.12 518 455C511.153 452.73 505.005 448.464 501.625 442C498.493 434.209 499.099 425.74 502 418C501.01 417.67 500.02 417.34 499 417C499.634 416.955 500.268 416.91 500.921 416.864C516.515 415.901 516.515 415.901 531.695 412.488C534.543 411.885 536.258 412.014 539 413Z" fill="#AF5D2D"/>
<path d="M523.238 633C524.238 634 524.238 634 524.351 635.766C524.346 636.515 524.341 637.264 524.336 638.035C524.332 638.844 524.329 639.653 524.326 640.486C524.317 641.336 524.309 642.187 524.3 643.063C524.296 643.917 524.291 644.771 524.287 645.65C524.275 647.767 524.257 649.883 524.238 652C524.913 651.977 525.589 651.954 526.285 651.93C527.623 651.903 527.623 651.903 528.988 651.875C530.311 651.84 530.311 651.84 531.66 651.805C534.352 652.009 535.937 652.634 538.238 654C538.488 656.813 538.488 656.813 538.238 660C535.917 662.41 534.574 662.967 531.222 663.293C530.155 663.258 529.088 663.223 527.988 663.188C526.91 663.16 525.833 663.133 524.722 663.105C523.902 663.071 523.083 663.036 522.238 663C521.548 675.016 521.087 686.963 521.238 699C522.234 698.658 522.234 698.658 523.25 698.309C524.133 698.021 525.016 697.734 525.925 697.438C526.796 697.147 527.666 696.857 528.562 696.559C531.484 695.949 533.382 696.223 536.238 697C535.785 701.868 534.655 704.486 531.238 708C526.998 710.528 523.063 710.804 518.238 710C513.859 707.926 511.115 705.485 509.238 701C508.995 698.673 508.995 698.673 509.007 696.105C509.009 695.156 509.01 694.207 509.011 693.229C509.024 692.225 509.037 691.222 509.05 690.188C509.057 689.164 509.063 688.14 509.07 687.086C509.151 679.028 509.528 671.027 510.238 663C507.598 663 504.958 663 502.238 663C500.38 659.865 500.037 657.625 500.238 654C501.475 653.67 502.713 653.34 503.988 653C504.684 652.814 505.38 652.629 506.097 652.438C508.238 652 508.238 652 512.238 652C512.287 650.964 512.336 649.927 512.386 648.859C512.461 647.49 512.537 646.12 512.613 644.75C512.644 644.068 512.675 643.386 512.707 642.684C512.919 639.041 513.138 636.052 515.238 633C518.12 631.559 520.156 632.344 523.238 633Z" fill="#F6B259"/>
<path d="M667 465C667.99 465.33 668.98 465.66 670 466C669.34 467.65 668.68 469.3 668 471C668.66 471 669.32 471 670 471C670.33 470.34 670.66 469.68 671 469C672.438 466.875 672.438 466.875 674 465C674.66 465 675.32 465 676 465C674.269 470.827 671.429 475.663 668.363 480.879C666.868 484.302 666.742 485.546 668 489C668.66 489.99 669.32 490.98 670 492C668.02 491.34 666.04 490.68 664 490C663.807 485.176 664.243 481.504 666 477C665.34 477 664.68 477 664 477C664 477.66 664 478.32 664 479C663.01 479 662.02 479 661 479C661 479.66 661 480.32 661 481C661.66 481 662.32 481 663 481C662.301 484.147 661.239 487.026 660 490C660.66 490.66 661.32 491.32 662 492C662.99 492 663.98 492 665 492C665.495 494.475 665.495 494.475 666 497C667.32 497.33 668.64 497.66 670 498C670 498.99 670 499.98 670 501C670.66 501 671.32 501 672 501C672.412 501.433 672.825 501.866 673.25 502.312C675.017 504.194 675.017 504.194 677.875 505.375C681.28 507.145 683.414 509.192 686 512C686.33 512.33 686.66 512.66 687 513C687.141 515.671 687.042 518.324 687 521C686.34 521 685.68 521 685 521C684.567 519.866 684.134 518.731 683.688 517.562C682.852 515.799 682.852 515.799 682 514C681.01 513.67 680.02 513.34 679 513C679.66 515.97 680.32 518.94 681 522C679.35 522 677.7 522 676 522C675.818 521.397 675.636 520.793 675.449 520.172C673.72 514.01 673.72 514.01 670 509C667.374 508.666 667.374 508.666 665 509C664.77 511.363 664.77 511.363 667.5 513.625C668.325 514.409 669.15 515.192 670 516C669.01 516.66 668.02 517.32 667 518C666.422 516.851 666.422 516.851 665.832 515.68C663.693 512.551 662.106 511.689 658.688 510.125C657.624 509.621 656.561 509.117 655.465 508.598C654.321 508.07 653.178 507.543 652 507C639.18 501.012 629.082 494.77 622 482C621.781 479.164 621.781 479.164 622 477C623.32 476.67 624.64 476.34 626 476C626.853 477.087 626.853 477.087 627.723 478.195C633.867 486.708 633.867 486.708 642 493C646.025 492.967 647.68 492.269 650.781 489.664C651.705 488.667 652.611 487.653 653.5 486.625C654.213 485.824 654.213 485.824 654.941 485.008C659.164 480.116 662.244 474.839 665 469C665.665 467.666 666.331 466.332 667 465Z" fill="#432C31"/>
<path d="M601.238 644C609.936 644.966 616.295 646.137 621.945 653.105C623.163 655.033 624.245 656.949 625.238 659C625.568 659.66 625.898 660.32 626.238 661C626.873 668.936 627.347 676.497 622.238 683C617.577 688.403 612.178 690.675 605.238 692C603.918 692 602.598 692 601.238 692C601.238 676.16 601.238 660.32 601.238 644Z" fill="white"/>
<path d="M758.238 653C761.06 655.721 761.564 658.237 762.238 662C762.757 661.518 763.277 661.036 763.812 660.539C769.768 655.145 773.847 652.518 782.015 652.668C785.889 653.247 788.481 655.243 791.238 658C791.53 661.282 791.537 663.403 790.05 666.375C788.238 668 788.238 668 785.675 668.437C784.871 668.293 784.067 668.149 783.238 668C782.578 667.01 781.918 666.02 781.238 665C776.345 664.348 774.257 664.392 769.988 666.937C763.759 673.023 762.831 680.485 762.726 688.838C762.73 689.984 762.734 691.131 762.738 692.312C762.746 694.621 762.736 696.93 762.707 699.238C762.711 700.249 762.716 701.26 762.72 702.302C762.11 705.717 760.942 706.893 758.238 709C755.613 709.375 755.613 709.375 753.238 709C750.711 706.473 750.957 705.537 750.872 702.031C750.827 700.48 750.827 700.48 750.782 698.896C750.761 697.776 750.74 696.655 750.718 695.5C750.692 694.353 750.665 693.207 750.638 692.025C750.585 689.598 750.538 687.17 750.495 684.742C750.426 681.015 750.33 677.289 750.232 673.562C750.184 671.208 750.138 668.854 750.093 666.5C750.062 665.379 750.031 664.258 749.999 663.103C749.985 662.069 749.972 661.035 749.957 659.969C749.939 659.055 749.921 658.142 749.902 657.201C750.013 656.475 750.124 655.748 750.238 655C753.459 652.852 754.498 652.439 758.238 653Z" fill="#F4B160"/>
<path d="M397.238 637C414.479 637 414.479 637 422.113 641.812C425.854 645.663 427.407 649.17 427.613 654.5C427.404 659.489 426.194 662.94 422.691 666.629C414.827 673.85 408.437 673 397.238 673C397.238 661.12 397.238 649.24 397.238 637Z" fill="#FCFBFA"/>
<path d="M392 493C392.338 494.895 392.671 496.791 393 498.688C393.186 499.743 393.371 500.799 393.562 501.887C393.951 504.649 394.083 507.217 394 510C391.563 510.98 389.125 511.959 386.688 512.938C385.652 513.354 385.652 513.354 384.596 513.779C372.944 518.451 361.763 518.646 350.184 513.772C343.343 510.557 336.808 505.212 334 498C334 496.68 334 495.36 334 494C340.093 494.425 345.194 496.522 350.816 498.844C362.691 503.157 373.87 501.052 385.02 496C390.961 493 390.961 493 392 493Z" fill="#F7B759"/>
<path d="M508.207 502.504C511.001 504.835 512.504 506.652 514 510C513.75 512.375 513.75 512.375 513 514C512.01 513.34 511.02 512.68 510 512C510 513.65 510 515.3 510 517C507 516 507 516 505 513C502.941 512.276 502.941 512.276 501 512C501.66 513.98 502.32 515.96 503 518C493.43 518.33 483.86 518.66 474 519C470.176 512.626 468.703 508.429 469 501C480.753 497.981 497.446 495.78 508.207 502.504Z" fill="#F9F7F8"/>
<path d="M696 383C697 384 697 384 697.055 385.785C696.565 391.987 694.677 396.02 691 401C692.32 401.99 693.64 402.98 695 404C693.866 404.124 692.731 404.248 691.562 404.375C690.387 404.581 689.211 404.788 688 405C687.67 405.66 687.34 406.32 687 407C685.68 407 684.36 407 683 407C683 407.66 683 408.32 683 409C682.34 409.66 681.68 410.32 681 411C684.545 409.602 684.545 409.602 688 408C691 407.813 691 407.813 694 408C694.66 408.66 695.32 409.32 696 410C690.595 413.895 686.647 415.534 680 416C679.67 416.33 679.34 416.66 679 417C679 417.66 679 418.32 679 419C678.34 419 677.68 419 677 419C676.67 419.66 676.34 420.32 676 421C667.916 418.583 659.182 413.848 654 407C654.188 404.688 654.188 404.688 655 403C657.562 404.23 659.808 405.539 662.188 407.125C666.442 409.538 670.212 409.803 675 409C678.193 407.993 681.208 406.864 684 405C684.33 404.01 684.66 403.02 685 402C684.325 401.769 683.649 401.539 682.953 401.301C673.624 397.89 673.624 397.89 671 393C670.75 390.188 670.75 390.188 671 388C678.825 383.47 687.106 382.576 696 383Z" fill="#3F1E2F"/>
<path d="M663.238 654C666.738 653.688 666.738 653.688 670.238 654C672.238 656 672.238 656 672.468 659.297C672.466 660.781 672.451 662.266 672.425 663.75C672.418 664.558 672.41 665.366 672.401 666.199C672.363 669.133 672.302 672.066 672.238 675C672.213 676.25 672.189 677.499 672.163 678.787C672.094 682.179 672.01 685.57 671.918 688.961C671.881 690.319 671.848 691.676 671.817 693.034C671.772 694.96 671.712 696.887 671.652 698.812C671.621 699.933 671.589 701.053 671.557 702.207C671.238 705 671.238 705 669.238 708C665.738 708.312 665.738 708.312 662.238 708C660.238 706 660.238 706 659.995 703.751C659.999 702.819 660.003 701.886 660.007 700.926C660.009 699.876 660.01 698.826 660.011 697.744C660.024 696.612 660.037 695.479 660.05 694.312C660.058 693.157 660.066 692.002 660.074 690.812C660.151 682.893 660.324 674.977 660.613 667.062C660.644 666.093 660.674 665.123 660.706 664.124C660.745 663.229 660.784 662.333 660.824 661.41C660.855 660.628 660.887 659.845 660.919 659.039C661.238 657 661.238 657 663.238 654Z" fill="#F8B352"/>
<path d="M579 304C588.504 304.422 597.609 310.132 604 317C605.845 319.147 607.622 321.34 609.375 323.562C609.817 324.117 610.258 324.671 610.713 325.242C613.123 328.403 614.831 330.968 615 335C614.381 335.722 613.763 336.444 613.125 337.188C610.091 341.203 610.191 345.084 610 350C608.02 350.495 608.02 350.495 606 351C603.335 345.67 602.325 341.976 603 336C605 333 605 333 607 331C601.576 322.558 592.701 314.234 583 311C583.428 313.669 583.867 316.334 584.313 319C584.43 319.744 584.548 320.488 584.67 321.254C585.328 325.136 586.174 328.7 587.605 332.375C589 336 589 336 589 339C584.033 336.936 583.002 333.754 581 329C580.546 327.993 580.546 327.993 580.082 326.965C577.378 320.173 577.501 313.221 578 306C578.33 305.34 578.66 304.68 579 304Z" fill="#3E1B27"/>
<path d="M583 311C588.089 311.452 591.095 313.967 594.937 317.062C595.557 317.554 596.177 318.046 596.815 318.552C601.358 322.252 604.822 326.045 608 331C607.345 331.684 606.69 332.369 606.016 333.074C603.557 336.643 603.577 338.535 603.75 342.812C603.804 344.555 603.804 344.555 603.859 346.332C603.906 347.212 603.952 348.093 604 349C597.957 348.235 594.908 346.631 591 342C585.397 332.908 582.694 321.63 583 311Z" fill="#F9F6F3"/>
<path d="M700.938 288.125C703 289 703 289 704.5 292.375C706.174 297.34 706.304 302.064 706.312 307.25C706.318 308.03 706.323 308.811 706.328 309.615C706.278 313.801 706.061 317.242 704 321C703.01 321.495 703.01 321.495 702 322C701.951 320.877 701.902 319.754 701.852 318.598C701.478 310.866 701.047 303.505 699 296C690.699 301.371 687.237 310.776 685 320C686.181 320.186 686.181 320.186 687.387 320.375C690 321 690 321 691.812 323C693.42 327.062 693.254 330.687 693 335C691.082 334.672 691.082 334.672 689 334C688.567 333.092 688.134 332.185 687.688 331.25C685.964 327.931 685.332 327.387 682.312 325.562C679.087 323.403 679.087 323.403 678.312 319.812C680.328 308.637 686.412 297.975 694.688 290.188C698 288 698 288 700.938 288.125Z" fill="#5B2B20"/>
<path d="M753.238 656C754.558 656 755.878 656 757.238 656C759.528 659.435 759.416 660.985 759.238 665C762.101 664.605 763.013 664.297 764.8 661.938C765.275 661.298 765.749 660.659 766.238 660C767.228 660 768.218 660 769.238 660C769.238 659.01 769.238 658.02 769.238 657C771.218 657.66 773.198 658.32 775.238 659C774.434 659.619 773.629 660.238 772.8 660.875C770.199 662.742 770.199 662.742 769.238 665C768.578 665 767.918 665 767.238 665C766.578 666.65 765.918 668.3 765.238 670C764.578 670 763.918 670 763.238 670C763.568 671.32 763.898 672.64 764.238 674C763.578 674.33 762.918 674.66 762.238 675C760.825 681.572 761.205 688.196 761.365 694.881C761.376 695.739 761.387 696.597 761.398 697.48C761.415 698.253 761.432 699.025 761.449 699.821C761.211 702.276 760.461 703.878 759.238 706C757.258 706 755.278 706 753.238 706C753.07 699.04 752.91 692.08 752.756 685.12C752.702 682.75 752.647 680.38 752.59 678.01C752.508 674.613 752.433 671.215 752.359 667.816C752.332 666.75 752.305 665.683 752.277 664.584C752.257 663.603 752.237 662.622 752.216 661.612C752.196 660.743 752.176 659.875 752.156 658.98C752.238 657 752.238 657 753.238 656Z" fill="#F8B253"/>
<path d="M587.328 388.973C590.73 390.281 591.38 392.034 592.825 395.27C593.131 395.985 593.436 396.7 593.75 397.438C600.862 412.735 612.765 422.126 628 429C627.67 430.32 627.34 431.64 627 433C621.813 433.429 618.268 432.083 613.813 429.625C613.158 429.267 612.504 428.909 611.83 428.54C601.248 422.514 593.862 414.625 588 404C587.567 403.254 587.134 402.507 586.688 401.738C584.477 397.708 583.426 394.71 584 390C585 389 585 389 587.328 388.973Z" fill="#422532"/>
<path d="M698 295C698.66 295.33 699.32 295.66 700 296C703.093 305.796 703.849 318.663 700 328.359C698.491 330.835 696.643 331.928 694 333C693.853 332.313 693.706 331.626 693.555 330.918C692.192 324.924 692.192 324.924 687.812 320.875C686.884 320.586 685.956 320.298 685 320C685.665 309.802 691.052 302.168 698 295Z" fill="#F9F8F8"/>
<path d="M664 477C664.66 477 665.32 477 666 477C666.043 478.666 666.041 480.334 666 482C665.67 482.33 665.34 482.66 665 483C664.632 485.328 664.298 487.662 664 490C664.598 490.12 665.196 490.24 665.812 490.363C668.605 491.176 670.504 492.815 672.805 494.543C675.468 496.311 678.239 497.628 681.125 499C685.677 501.216 688.809 503.089 692 507C692.526 507.597 693.052 508.194 693.594 508.809C696.175 512.83 695.619 517.399 695 522C693.25 525.188 693.25 525.188 691 527C689.68 527 688.36 527 687 527C687.33 526.381 687.66 525.762 688 525.125C689.142 523.09 689.142 523.09 689 521C689.66 521 690.32 521 691 521C690.505 518.525 690.505 518.525 690 516C689.34 516.66 688.68 517.32 688 518C686.476 515.017 685.061 512.182 684 509C682.178 507.88 682.178 507.88 680 507C677.333 505.667 674.667 504.333 672 503C672 502.34 672 501.68 672 501C671.34 501 670.68 501 670 501C669.34 500.01 668.68 499.02 668 498C667.01 497.67 666.02 497.34 665 497C664.67 495.35 664.34 493.7 664 492C663.34 492.66 662.68 493.32 662 494C660.375 492.312 660.375 492.312 659 490C659.688 487.5 659.688 487.5 661 485C661.371 484.237 661.743 483.474 662.125 482.688C662.414 482.131 662.702 481.574 663 481C662.34 481 661.68 481 661 481C661 480.34 661 479.68 661 479C661.99 479 662.98 479 664 479C664 478.34 664 477.68 664 477Z" fill="#3C2D26"/>
<path d="M673.464 623.98C677.229 626.205 679.597 627.837 681.238 632C682.105 638.442 679.889 641.98 676.238 647C674.738 645.625 674.738 645.625 673.238 644C673.238 643.34 673.238 642.68 673.238 642C672.19 642.035 672.19 642.035 671.121 642.07C670.211 642.088 669.301 642.106 668.363 642.125C667.006 642.16 667.006 642.16 665.621 642.195C663.238 642 663.238 642 661.238 640C660.804 636.096 660.612 633.881 662.925 630.625C665.429 628.866 667.22 628.335 670.238 628C669.908 627.67 669.578 627.34 669.238 627C665.501 627.423 661.861 627.985 658.238 629C658.238 629.66 658.238 630.32 658.238 631C657.248 630.67 656.258 630.34 655.238 630C659.98 623.565 665.586 620.511 673.464 623.98Z" fill="#4A2C28"/>
<path d="M334 494C340.093 494.425 345.194 496.522 350.816 498.844C353.899 499.963 356.756 500.571 360 501C360.061 501.748 360.121 502.495 360.184 503.266C360.309 504.743 360.309 504.743 360.438 506.25C360.519 507.225 360.6 508.199 360.684 509.203C360.951 511.565 361.354 513.719 362 516C351.826 515.435 344.611 511.226 337.594 503.965C334.741 500.448 334 498.618 334 494Z" fill="#F7F6F6"/>
<path d="M681 400C686.42 399.593 690.07 400.96 695 403C691.072 405.032 687.341 406.179 683 407C683 407.66 683 408.32 683 409C682.34 409.66 681.68 410.32 681 411C684.545 409.602 684.545 409.602 688 408C691 407.813 691 407.813 694 408C694.66 408.66 695.32 409.32 696 410C690.595 413.895 686.647 415.534 680 416C679.67 416.33 679.34 416.66 679 417C679 417.66 679 418.32 679 419C678.34 419 677.68 419 677 419C676.67 419.66 676.34 420.32 676 421C667.916 418.583 659.182 413.848 654 407C654.188 404.688 654.188 404.688 655 403C657.562 404.23 659.808 405.539 662.188 407.125C666.442 409.538 670.212 409.803 675 409C678.193 407.993 681.208 406.864 684 405C684.33 404.01 684.66 403.02 685 402C683.68 401.34 682.36 400.68 681 400Z" fill="#422234"/>
<path d="M341 509C345.083 509.95 348.877 511.485 352.75 513.062C353.447 513.344 354.145 513.626 354.863 513.916C356.576 514.608 358.288 515.304 360 516C360 516.66 360 517.32 360 518C367.627 520.468 376.554 518.327 384 516C386.938 515.875 386.938 515.875 389 516C389 516.66 389 517.32 389 518C387.02 518.99 387.02 518.99 385 520C385.495 520.99 385.495 520.99 386 522C374.323 526.027 358.646 525.899 347.234 521.199C343.922 519.421 342.055 518.197 340 515C340.188 511.688 340.188 511.688 341 509Z" fill="#3F212B"/>
<path d="M326.238 689C327.228 689 328.218 689 329.238 689C325.894 704.75 320.841 720.241 307.238 730C302.99 732.411 298.028 732.834 293.238 732C291.449 730.645 291.449 730.645 290.238 729C290.659 724.579 290.659 724.579 292.238 723C293.23 722.892 293.23 722.892 294.242 722.781C300.054 722.142 302.964 720.825 306.863 716.375C308.012 714.935 309.146 713.483 310.238 712C310.568 712.99 310.898 713.98 311.238 715C309.8 717.688 309.8 717.688 308.238 720C310.313 720.553 312.082 721 314.238 721C314.485 720.361 314.733 719.721 314.988 719.062C315.693 717.334 316.429 715.616 317.261 713.945C319.85 708.639 320.667 704.899 320.238 699C322.713 699.495 322.713 699.495 325.238 700C325.226 699.29 325.215 698.579 325.203 697.848C325.194 696.929 325.185 696.009 325.175 695.062C325.164 694.146 325.152 693.229 325.14 692.285C325.238 690 325.238 690 326.238 689Z" fill="#ECAE62"/>
<path d="M658 493C660.792 494.276 662.802 495.621 665 497.75C668.131 500.536 671.344 502.265 675.125 504.062C679.676 506.227 682.795 508.132 686 512C686.33 512.33 686.66 512.66 687 513C687.141 515.671 687.042 518.324 687 521C686.34 521 685.68 521 685 521C684.567 519.866 684.134 518.731 683.688 517.562C683.131 516.387 682.574 515.211 682 514C681.01 513.67 680.02 513.34 679 513C679.66 515.97 680.32 518.94 681 522C679.35 522 677.7 522 676 522C675.853 521.432 675.706 520.863 675.555 520.277C673.542 513.35 670.858 508.298 664.527 504.527C662.046 503.274 659.544 502.121 657 501C655.663 500.341 654.328 499.676 653 499C653 498.34 653 497.68 653 497C654.626 495.618 656.293 494.281 658 493Z" fill="#F4EBEE"/>
<path d="M329.238 688C329.898 688 330.558 688 331.238 688C330.908 691.96 330.578 695.92 330.238 700C329.578 700 328.918 700 328.238 700C327.908 701.98 327.578 703.96 327.238 706C326.578 706 325.918 706 325.238 706C325.189 706.652 325.14 707.305 325.089 707.977C324.088 719.688 324.088 719.688 320.738 723.875C319.238 725 319.238 725 317.238 725C317.279 725.784 317.32 726.567 317.363 727.375C317.238 730 317.238 730 315.238 732C313.192 732.337 311.182 732.441 309.113 732.559C306.831 732.871 306.831 732.871 305.238 736C300.288 735.67 295.338 735.34 290.238 735C290.238 734.34 290.238 733.68 290.238 733C289.248 733 288.258 733 287.238 733C286.55 730.25 286.55 730.25 286.238 727C287.675 724.625 287.675 724.625 289.238 723C291.238 728.75 291.238 728.75 291.238 731C298.474 731.479 304.28 731.462 310.238 727C321.504 717.029 325.14 701.892 329.238 688Z" fill="#4A1D1C"/>
<path d="M623 476C625.902 476.236 626.878 476.866 628.859 479.039C629.483 479.892 630.107 480.746 630.75 481.625C636.84 489.934 636.84 489.934 645.613 494.496C648 495 648 495 650 498C650.66 497.67 651.32 497.34 652 497C652.33 498.65 652.66 500.3 653 502C652.34 502.33 651.68 502.66 651 503C651 503.33 651 503.66 651 504C644.969 504.754 641.668 502.422 637 499C636.411 498.577 635.822 498.154 635.215 497.719C629.809 493.482 625.351 487.979 622 482C621.715 479.223 621.715 479.223 622 477C622.33 476.67 622.66 476.34 623 476Z" fill="#3D202F"/>
<path d="M255.238 675C255.898 675 256.558 675 257.238 675C258.366 682.791 258.587 690.559 258.843 698.42C258.881 699.451 258.918 700.481 258.957 701.543C258.987 702.471 259.017 703.4 259.048 704.356C259.236 706.978 259.665 709.438 260.238 712C258.425 711.938 258.425 711.938 256.238 711C252.663 704.812 252.881 699.072 253.05 692.062C253.064 690.997 253.077 689.932 253.091 688.834C253.127 686.222 253.176 683.611 253.238 681C252.578 681 251.918 681 251.238 681C251.238 680.34 251.238 679.68 251.238 679C252.228 678.67 253.218 678.34 254.238 678C254.568 677.01 254.898 676.02 255.238 675Z" fill="#3D1F26"/>
<path d="M663.238 630C670.08 629.348 670.08 629.348 673.238 631.125C674.717 633.898 674.624 635.912 674.238 639C673.238 640.875 673.238 640.875 671.238 642C668.436 642.361 666.1 642.227 663.238 642C661.238 640 661.238 640 660.988 636.563C661.238 633 661.238 633 663.238 630Z" fill="#E8B074"/>
<path d="M648.937 365.625C652 366 652 366 653.875 367.5C655.542 371.205 655.327 373.946 655 378C653 380 653 380 650.062 380.375C647 380 647 380 645.125 378.5C643.458 374.795 643.673 372.054 644 368C646 366 646 366 648.937 365.625Z" fill="#481D1F"/>
<path d="M690 356C692.136 358.563 692.904 360.331 693.375 363.625C693 366 693 366 691.812 367.812C689.328 369.441 687.913 369.51 685 369C683.187 367.562 683.187 367.562 682 365C681.761 361.982 681.826 359.02 682 356C684.996 354.502 686.832 355.095 690 356Z" fill="#5E2D12"/>
<path d="M694 408C694.66 408.66 695.32 409.32 696 410C690.632 413.869 686.635 415.645 680 416C680 415.01 680 414.02 680 413C684.071 409.332 688.458 407.076 694 408Z" fill="#AC395C"/>
<path d="M479.308 681.318C478.518 681.807 477.502 682.029 476.204 681.997C475.356 681.975 474.503 681.856 473.666 681.642C471.75 681.152 469.726 681.152 467.81 681.642C466.973 681.856 466.119 681.975 465.272 681.997C465.189 681.999 465.107 682 465.025 682C463.844 682 462.908 681.776 462.168 681.318C460.815 680.479 460.142 678.711 460.603 677.205C461.015 675.859 462.124 674.941 463.198 674.054C463.343 673.934 463.493 673.81 463.636 673.688C464.725 672.767 465.719 671.729 466.592 670.603C466.702 670.46 466.813 670.313 466.921 670.17C467.334 669.623 467.761 669.057 468.285 668.577L468.305 668.559C468.947 667.977 469.811 667.657 470.738 667.657C471.202 667.657 471.65 667.737 472.062 667.89C472.474 668.043 472.851 668.268 473.171 668.559L473.191 668.577C473.715 669.057 474.142 669.623 474.555 670.17C474.663 670.313 474.774 670.46 474.884 670.603C475.757 671.729 476.751 672.767 477.84 673.688C477.983 673.81 478.133 673.934 478.278 674.054C479.352 674.941 480.461 675.859 480.873 677.205C481.334 678.711 480.661 680.479 479.308 681.318Z" fill="white"/>
<path d="M484.523 669.446C483.939 670.51 483.135 671.244 482.199 671.568C481.828 671.697 481.442 671.761 481.05 671.761C480.522 671.761 479.982 671.645 479.452 671.412C478.539 671.014 477.999 670.416 477.846 669.637C477.695 668.866 477.921 667.947 478.534 666.829C479.155 665.696 479.925 664.812 480.761 664.274C481.71 663.662 482.677 663.542 483.556 663.927C484.438 664.312 485.017 665.112 485.187 666.18C485.351 667.205 485.115 668.366 484.523 669.446Z" fill="white"/>
<path d="M478.767 663.291C478.633 664.575 478.134 665.597 477.323 666.248C476.664 666.776 475.83 667.05 474.889 667.05C474.751 667.05 474.61 667.044 474.468 667.032C473.372 666.941 472.568 666.522 472.079 665.785C471.593 665.054 471.426 664.042 471.567 662.691C471.639 662.007 471.775 661.373 471.971 660.806C472.167 660.239 472.422 659.738 472.731 659.321C473.429 658.376 474.356 657.923 475.411 658.011C476.47 658.099 477.401 658.712 478.033 659.736C478.643 660.724 478.903 661.987 478.767 663.291Z" fill="white"/>
<path d="M462.942 666.829C463.555 667.947 463.78 668.866 463.63 669.637C463.477 670.416 462.937 671.014 462.024 671.412C461.494 671.645 460.954 671.761 460.426 671.761C460.034 671.761 459.649 671.697 459.277 671.568C458.341 671.244 457.537 670.51 456.953 669.446C456.361 668.366 456.125 667.205 456.288 666.18C456.459 665.112 457.038 664.312 457.919 663.927C458.799 663.542 459.766 663.662 460.715 664.274C461.551 664.812 462.32 665.696 462.942 666.829Z" fill="white"/>
<path d="M469.908 662.691C469.941 662.999 469.957 663.29 469.957 663.563C469.957 664.489 469.772 665.22 469.397 665.785C468.908 666.521 468.104 666.941 467.008 667.032C466.865 667.044 466.725 667.05 466.587 667.05C465.646 667.05 464.811 666.776 464.153 666.248C463.342 665.597 462.843 664.574 462.708 663.291C462.572 661.987 462.833 660.724 463.442 659.736C464.075 658.712 465.006 658.099 466.065 658.011C467.119 657.923 468.046 658.376 468.745 659.321C469.363 660.156 469.765 661.322 469.908 662.691Z" fill="white"/>
<path d="M718.899 703.232C718.054 703.783 716.969 704.033 715.581 703.996C714.674 703.972 713.762 703.838 712.868 703.597C710.82 703.046 708.656 703.046 706.608 703.597C705.714 703.838 704.801 703.972 703.895 703.996C703.806 703.999 703.718 704 703.631 704C702.369 704 701.368 703.748 700.577 703.232C699.131 702.289 698.411 700.3 698.904 698.606C699.344 697.092 700.53 696.059 701.678 695.06C701.832 694.925 701.993 694.786 702.147 694.649C703.31 693.613 704.373 692.445 705.306 691.178C705.424 691.018 705.543 690.852 705.658 690.691C706.099 690.075 706.555 689.439 707.116 688.899L707.137 688.878C707.823 688.224 708.747 687.864 709.738 687.864C710.234 687.864 710.712 687.954 711.153 688.126C711.594 688.298 711.996 688.551 712.339 688.878L712.36 688.899C712.921 689.439 713.377 690.075 713.818 690.692C713.933 690.852 714.052 691.018 714.17 691.178C715.103 692.445 716.166 693.613 717.329 694.649C717.483 694.786 717.643 694.925 717.798 695.06C718.946 696.059 720.132 697.092 720.572 698.606C721.065 700.3 720.345 702.289 718.899 703.232Z" fill="white"/>
<path d="M724.473 689.877C723.849 691.074 722.99 691.9 721.989 692.264C721.592 692.409 721.18 692.482 720.761 692.482C720.196 692.482 719.62 692.35 719.052 692.089C718.077 691.64 717.499 690.968 717.336 690.091C717.175 689.224 717.416 688.191 718.072 686.932C718.736 685.657 719.559 684.664 720.452 684.058C721.466 683.37 722.5 683.235 723.44 683.668C724.383 684.101 725.002 685.001 725.184 686.202C725.359 687.356 725.106 688.662 724.473 689.877Z" fill="white"/>
<path d="M718.321 682.953C718.177 684.396 717.644 685.546 716.777 686.279C716.073 686.873 715.181 687.181 714.175 687.181C714.027 687.181 713.878 687.175 713.725 687.162C712.553 687.059 711.694 686.587 711.171 685.758C710.652 684.935 710.474 683.797 710.625 682.278C710.701 681.507 710.847 680.795 711.056 680.157C711.265 679.518 711.538 678.956 711.868 678.486C712.615 677.423 713.606 676.914 714.733 677.012C715.865 677.111 716.861 677.801 717.536 678.953C718.188 680.065 718.467 681.485 718.321 682.953Z" fill="white"/>
<path d="M701.404 686.933C702.06 688.191 702.301 689.224 702.139 690.091C701.977 690.968 701.399 691.64 700.423 692.089C699.856 692.35 699.279 692.482 698.715 692.482C698.296 692.482 697.884 692.409 697.486 692.264C696.486 691.9 695.627 691.074 695.003 689.877C694.37 688.662 694.117 687.356 694.292 686.202C694.474 685.001 695.093 684.101 696.035 683.668C696.976 683.235 698.01 683.37 699.024 684.058C699.917 684.664 700.74 685.657 701.404 686.933Z" fill="white"/>
<path d="M708.851 682.278C708.885 682.624 708.903 682.951 708.903 683.259C708.903 684.3 708.705 685.123 708.305 685.758C707.782 686.587 706.923 687.059 705.75 687.161C705.598 687.175 705.448 687.181 705.301 687.181C704.295 687.181 703.403 686.873 702.699 686.279C701.832 685.546 701.298 684.396 701.155 682.952C701.009 681.485 701.287 680.065 701.939 678.953C702.615 677.801 703.611 677.111 704.742 677.012C705.87 676.913 706.861 677.423 707.608 678.486C708.268 679.425 708.698 680.737 708.851 682.278Z" fill="white"/>
<path d="M858.186 644.894C857.18 644.967 856.109 644.66 854.912 643.956C854.131 643.495 853.398 642.936 852.732 642.293C851.208 640.819 849.314 639.77 847.255 639.261C846.356 639.038 845.493 638.714 844.689 638.296C844.61 638.255 844.532 638.214 844.456 638.172C843.352 637.56 842.598 636.855 842.156 636.021C841.347 634.495 841.681 632.406 842.932 631.163C844.051 630.051 845.589 629.722 847.076 629.404C847.277 629.361 847.485 629.317 847.686 629.272C849.206 628.929 850.702 628.421 852.131 627.765C852.312 627.682 852.496 627.594 852.674 627.509C853.359 627.184 854.066 626.848 854.818 626.647L854.847 626.639C855.764 626.4 856.746 626.532 857.614 627.012C858.047 627.252 858.423 627.562 858.725 627.926C859.027 628.29 859.256 628.707 859.398 629.159L859.407 629.187C859.636 629.931 859.726 630.709 859.814 631.462C859.837 631.658 859.861 631.86 859.886 632.058C860.088 633.618 860.453 635.154 860.969 636.625C861.037 636.819 861.11 637.018 861.18 637.212C861.7 638.641 862.238 640.119 861.89 641.657C861.501 643.378 859.908 644.769 858.186 644.894Z" fill="#F8B253"/>
<path d="M869.531 635.909C868.405 636.654 867.253 636.961 866.201 636.795C865.784 636.73 865.388 636.593 865.021 636.39C864.527 636.117 864.087 635.722 863.717 635.219C863.08 634.354 862.901 633.486 863.183 632.64C863.462 631.803 864.173 631.016 865.356 630.233C866.555 629.439 867.756 628.968 868.83 628.871C870.051 628.76 871.021 629.143 871.634 629.976C872.249 630.812 872.355 631.9 871.932 633.038C871.526 634.133 870.673 635.152 869.531 635.909Z" fill="#F8B253"/>
<path d="M867.502 626.871C866.677 628.065 865.653 628.813 864.54 629.034C863.636 629.213 862.706 629.05 861.826 628.563C861.697 628.492 861.569 628.414 861.442 628.328C860.467 627.671 859.943 626.841 859.887 625.863C859.832 624.892 860.227 623.81 861.095 622.554C861.535 621.917 862.008 621.364 862.5 620.907C862.991 620.45 863.503 620.089 864.019 619.839C865.187 619.27 866.301 619.304 867.24 619.937C868.182 620.572 868.719 621.657 868.752 622.993C868.784 624.281 868.339 625.658 867.502 626.871Z" fill="#F8B253"/>
<path d="M850.773 622.161C850.738 623.579 850.448 624.599 849.887 625.28C849.32 625.969 848.489 626.277 847.418 626.197C846.795 626.151 846.227 625.986 845.733 625.713C845.367 625.51 845.041 625.247 844.764 624.928C844.065 624.124 843.713 622.985 843.747 621.636C843.782 620.266 844.193 619.002 844.905 618.077C845.645 617.114 846.623 616.627 847.658 616.704C848.69 616.781 849.529 617.4 850.083 618.493C850.571 619.455 850.81 620.723 850.773 622.161Z" fill="#F8B253"/>
<path d="M859.543 621.695C859.405 622.014 859.262 622.309 859.113 622.578C858.609 623.489 858.037 624.113 857.38 624.475C856.521 624.947 855.54 624.944 854.465 624.466C854.325 624.404 854.191 624.337 854.062 624.265C853.182 623.778 852.55 623.077 852.223 622.216C851.819 621.155 851.909 619.89 852.483 618.558C853.066 617.203 853.997 616.096 855.106 615.439C856.256 614.758 857.46 614.637 858.499 615.098C859.533 615.558 860.153 616.483 860.292 617.775C860.414 618.917 860.155 620.273 859.543 621.695Z" fill="#F8B253"/>
</svg>
